<?xml version="1.0" encoding="utf-8"?>
<!-- Generator: Adobe Illustrator 25.1.0, SVG Export Plug-In . SVG Version: 6.00 Build 0)  -->
<svg version="1.1" id="Layer_1" xmlns="http://www.w3.org/2000/svg" xmlns:xlink="http://www.w3.org/1999/xlink" x="0px" y="0px"
	 viewBox="0 0 1920.2 1080.6" style="enable-background:new 0 0 1920.2 1080.6;" xml:space="preserve">
<style type="text/css">
	.st0{fill:#3B434C;}
	.st1{opacity:0.47;}
	.st2{fill:#212E3F;}
	.st3{fill:#243342;}
	.st4{fill:#171A21;}
	.st5{fill:#313B47;}
	.st6{opacity:0.2;}
	.st7{fill:#FFFFFF;}
	.st8{opacity:0.15;}
	.st9{fill:#E2E5E8;}
	.st10{fill:#2B3B52;}
	.st11{fill:#F85151;}
	.st12{fill:#E4D468;}
	.st13{fill:#5DC95B;}
	.st14{fill:#515B74;}
	.st15{fill:#41546B;}
	.st16{fill:url(#SVGID_1_);}
	.st17{fill:#142230;}
	.st18{fill:url(#SVGID_2_);}
	.st19{fill:url(#SVGID_3_);}
</style>
<rect x="844.4" y="838.3" class="st0" width="213.3" height="201.2"/>
<g id="Layer_12">
</g>
<path class="st0" d="M1057.7,896.5v93.7c0,12.1-9.9,22-22,22H866.4c-12.1,0-22-9.9-22-22v-93.7H1057.7z"/>
<path class="st0" d="M1766.3,1036.2v29.6c0,6.2-5,11.2-11.2,11.2H175.9c-6.2,0-11.2-5-11.2-11.2v-29.6c0-6.2,5-11.2,11.2-11.2
	h1579.2C1761.2,1025,1766.3,1030,1766.3,1036.2z"/>
<g class="st1">
	<path class="st2" d="M1057.7,896.5v93.7c0,12.1-9.9,22-22,22H875.2c33.2-36.1,74.7-80.7,107.2-115.7H1057.7z"/>
</g>
<g class="st1">
	<path class="st2" d="M1766.3,1051.1v14.9c0,6.2-5,11.2-11.2,11.2H175.9c-6.2,0-11.2-5-11.2-11.2v-14.9H1766.3z"/>
</g>
<g id="Layer_5">
	<path class="st3" d="M1719.9,885.8H235.1c-16.2,0-29.5-13.2-29.5-29.5V32.5c0-16.2,13.2-29.5,29.5-29.5h1484.7
		c16.2,0,29.5,13.2,29.5,29.5v823.8C1749.3,872.6,1736.1,885.8,1719.9,885.8z"/>
	<path class="st4" d="M1694.8,863.9H260.2c-16.2,0-29.5-13.2-29.5-29.5V54.2c0-16.2,13.2-29.5,29.5-29.5h1434.5
		c16.2,0,29.5,13.2,29.5,29.5v780.2C1724.2,850.8,1711,863.9,1694.8,863.9z"/>
	<g>
		<path class="st5" d="M324.1,97.2h-32.5c-2.2,0-4.1-1.9-4.1-4.1V60.6c0-2.2,1.9-4.1,4.1-4.1h32.5c2.2,0,4.1,1.9,4.1,4.1v32.5
			C328.2,95.5,326.3,97.2,324.1,97.2z"/>
		<path class="st5" d="M324.1,162.8h-32.5c-2.2,0-4.1-1.9-4.1-4.1v-32.5c0-2.2,1.9-4.1,4.1-4.1h32.5c2.2,0,4.1,1.9,4.1,4.1v32.5
			C328.2,160.9,326.3,162.8,324.1,162.8z"/>
		<path class="st5" d="M324.1,228.4h-32.5c-2.2,0-4.1-1.9-4.1-4.1v-32.5c0-2.2,1.9-4.1,4.1-4.1h32.5c2.2,0,4.1,1.9,4.1,4.1v32.5
			C328.2,226.5,326.3,228.4,324.1,228.4z"/>
		<path class="st5" d="M324.1,293.9h-32.5c-2.2,0-4.1-1.9-4.1-4.1v-32.5c0-2.2,1.9-4.1,4.1-4.1h32.5c2.2,0,4.1,1.9,4.1,4.1v32.5
			C328.2,292,326.3,293.9,324.1,293.9z"/>
	</g>
	<path class="st5" d="M460.9,557.5h-32.5c-2.2,0-4.1-1.9-4.1-4.1v-32.5c0-2.2,1.9-4.1,4.1-4.1h32.5c2.2,0,4.1,1.9,4.1,4.1v32.5
		C465,555.6,463.1,557.5,460.9,557.5z"/>
	<path class="st5" d="M391.9,495.2h-32.5c-2.2,0-4.1-1.9-4.1-4.1v-32.5c0-2.2,1.9-4.1,4.1-4.1h32.5c2.2,0,4.1,1.9,4.1,4.1v32.5
		C395.9,493.4,394.2,495.2,391.9,495.2z"/>
	<path class="st5" d="M406.2,180h-32.5c-2.2,0-4.1-1.9-4.1-4.1v-32.5c0-2.2,1.9-4.1,4.1-4.1h32.5c2.2,0,4.1,1.9,4.1,4.1v32.5
		C410.3,178.2,408.4,180,406.2,180z"/>
	<path class="st5" d="M460.9,228.4h-32.5c-2.2,0-4.1-1.9-4.1-4.1v-32.5c0-2.2,1.9-4.1,4.1-4.1h32.5c2.2,0,4.1,1.9,4.1,4.1v32.5
		C465,226.5,463.1,228.4,460.9,228.4z"/>
	<path class="st5" d="M460.9,293.9h-32.5c-2.2,0-4.1-1.9-4.1-4.1v-32.5c0-2.2,1.9-4.1,4.1-4.1h32.5c2.2,0,4.1,1.9,4.1,4.1v32.5
		C465,292,463.1,293.9,460.9,293.9z"/>
</g>
<g id="Layer_7">
	<g>
		<g class="st6">
			<g>
				<path class="st7" d="M550.3,633.7c-7.4-7.4-17.6-12-28.9-12H379.3c-7.6,0-13.7-6.2-13.5-14c0.2-7.4,6.6-13.1,14.1-13.1H446
					c4,0,7.7-3,7.9-7.1c0.2-4.4-3.2-7.9-7.5-7.9h-72.7c-19.5,0-36.4,15-37.2,34.5c-1,20.9,15.6,38,36.2,38h108.6
					c8,0,15.1,5.9,15.7,13.9c0.6,7.6-4.2,14.1-11.1,16.1h-85.1c-35.6,0-64.5,28.9-64.5,64.5V787h168.8v-10.6c0-25.9-21-47-47-47
					c-3.4,0-6.6-1.2-9-3.4c-2.5-2.1-4.1-5-4.4-8.4c-0.7-7.7,5.4-14.2,12.9-14.2h63.7c22.6,0,40.9-18.4,40.9-40.9
					C562.2,651.3,557.7,641,550.3,633.7z M391.9,725.8c-11.2,0-20.5-4.2-20.5-9.4s9.1-9.4,20.5-9.4c11.2,0,20.5,4.2,20.5,9.4
					C412.4,721.5,403.3,725.8,391.9,725.8z"/>
			</g>
			<ellipse class="st7" cx="481.5" cy="587.1" rx="9.4" ry="7.5"/>
		</g>
		<g>
			<g>
				<path class="st7" d="M543.3,760.1l-11.5,152.5c-1.1,15-13.7,26.7-28.7,26.7H337.7c-6.6,0-12.9-2.2-17.7-6.1
					c-6.2-4.9-10.5-12.2-11.1-20.6l-11.5-152.5c-1-12.4,8.9-22.9,21.1-22.9h203.6C534.6,737.2,544.3,747.7,543.3,760.1z"/>
			</g>
			<g>
				<path class="st7" d="M524.5,903.7c-40,0-72.3-26.9-72.3-60c0-33,32.5-60,72.3-60c40,0,72.3,26.9,72.3,60
					C596.9,876.8,564.5,903.7,524.5,903.7z M524.5,805c-28.2,0-51.2,17.4-51.2,38.7s23,38.7,51.2,38.7s51.2-17.4,51.2-38.7
					S552.7,805,524.5,805z"/>
			</g>
		</g>
	</g>
	<g class="st8">
		<path class="st2" d="M543.3,760.1l-11.5,152.5c-1.1,15-13.7,26.7-28.7,26.7H337.7c-6.6,0-12.9-2.2-17.7-6.1l201.8-196h0.4
			C534.6,737.2,544.3,747.7,543.3,760.1z"/>
	</g>
</g>
<g id="Layer_11">
	<g>
		<path class="st9" d="M622.6,948.5v76.5H261.9c-21.1,0-38.2-17.1-38.2-38.2c0-10.5,4.2-20.1,11.1-27c6.9-6.9,16.5-11.1,27-11.1
			h360.8V948.5z"/>
		<g class="st8">
			<path class="st2" d="M458.6,948.5l-37.7,76.5h-159c-21.1,0-38.2-17.1-38.2-38.2c0-10.5,4.2-20.1,11.1-27
				c6.9-6.9,16.5-11.1,27-11.1h196.9L458.6,948.5L458.6,948.5z"/>
		</g>
		<path class="st10" d="M616.7,1019.1h-16.2H262.9c-17.4,0-32.5-13.4-33.2-30.7c-0.9-18.5,14-33.9,32.2-33.9h338.6h16.2h5.9
			c3.2,0,5.9-2.6,5.9-5.9l0,0c0-3.2-2.6-5.9-5.9-5.9H263.1c-24,0-44.4,18.6-45.2,42.5c-0.9,25.1,19.2,45.7,44.1,45.7h360.6
			c3.2,0,5.9-2.6,5.9-5.9l0,0c0-3.2-2.6-5.9-5.9-5.9L616.7,1019.1L616.7,1019.1L616.7,1019.1z"/>
	</g>
</g>
<g id="Layer_4">
	<path class="st10" d="M1670.3,798.5H614.9c-13.2,0-24.1-10.7-24.1-24.1v-646c0-13.2,10.7-24.1,24.1-24.1h1055.2
		c13.2,0,24.1,10.7,24.1,24.1v645.9C1694.3,787.7,1683.5,798.5,1670.3,798.5z"/>
	<circle class="st11" cx="635.2" cy="131.2" r="8.7"/>
	<circle class="st12" cx="662" cy="131.2" r="8.7"/>
	<circle class="st13" cx="688.8" cy="131.2" r="8.7"/>
	<path class="st14" d="M810.7,144.4h-52.3c-7.7,0-14-6.2-14-14l0,0c0-7.7,6.2-14,14-14h52.3c7.7,0,14,6.2,14,14l0,0
		C824.8,138.1,818.5,144.4,810.7,144.4z"/>
	<rect x="780.8" y="114.3" class="st10" width="7.5" height="32.1"/>
	<path class="st7" d="M804.6,130.9c0.4-0.4,0.4-0.9,0-1.2l-7.6-7.6c-0.6-0.6-0.1-1.5,0.6-1.5h5.1c0.2,0,0.5,0.1,0.6,0.2l8.9,8.9
		c0.4,0.4,0.4,0.9,0,1.2l-8.9,8.9c-0.1,0.1-0.4,0.2-0.6,0.2h-5.1c-0.9,0-1.2-1-0.6-1.5L804.6,130.9z"/>
	<path class="st7" d="M764.6,130.9c-0.4-0.4-0.4-0.9,0-1.2l7.6-7.6c0.6-0.6,0.1-1.5-0.6-1.5h-5.1c-0.2,0-0.5,0.1-0.6,0.2l-8.9,8.9
		c-0.4,0.4-0.4,0.9,0,1.2l8.9,8.9c0.1,0.1,0.4,0.2,0.6,0.2h5.1c0.9,0,1.2-1,0.6-1.5L764.6,130.9z"/>
	<path class="st14" d="M1382.3,146.8H909c-4.5,0-8.1-3.6-8.1-8.1v-14.4c0-4.5,3.6-8.1,8.1-8.1h473.1c4.5,0,8.1,3.6,8.1,8.1v14.4
		C1390.3,143.2,1386.7,146.8,1382.3,146.8z"/>
	<g>
		<g>
			<path class="st7" d="M920.4,140.7c-5.4,0-9.6-4.4-9.6-9.6c0-5.4,4.4-9.6,9.6-9.6c5.4,0,9.6,4.4,9.6,9.6
				C930,136.4,925.8,140.7,920.4,140.7z M920.4,125.1c-3.4,0-6.1,2.7-6.1,6.1c0,3.4,2.7,6.1,6.1,6.1s6.1-2.7,6.1-6.1
				C926.5,127.7,923.8,125.1,920.4,125.1z"/>
		</g>
		<g>
			<path class="st7" d="M931.9,141.6c-0.4,0-0.7-0.1-1.1-0.4l-5.1-4.1c-0.7-0.6-0.9-1.7-0.2-2.5c0.6-0.7,1.7-0.9,2.5-0.2l5.1,4.1
				c0.7,0.6,0.9,1.7,0.2,2.5C932.9,141.4,932.4,141.6,931.9,141.6z"/>
		</g>
	</g>
	<g>
		<g>
			<path class="st7" d="M1367.9,141.4c-5.4,0-9.6-4.4-9.6-9.6c0-5.4,4.4-9.6,9.6-9.6c3.6,0,6.9,2,8.6,5.2c0.5,0.9,0.1,1.9-0.7,2.4
				c-0.9,0.5-2,0.1-2.4-0.7c-1-2-3.1-3.4-5.5-3.4c-3.4,0-6.1,2.7-6.1,6.1s2.7,6.1,6.1,6.1c0.5,0,1-0.1,1.5-0.2
				c1-0.2,1.9,0.4,2.1,1.2c0.2,1-0.4,1.9-1.2,2.1C1369.5,141.4,1368.7,141.4,1367.9,141.4z"/>
		</g>
		<path class="st7" d="M1377.8,125.2l-8,3.1c-0.9,0.4-1,1.5-0.2,2l6.1,3.9c0.6,0.4,1.5,0.1,1.7-0.6l1.9-7
			C1379.5,125.7,1378.7,124.9,1377.8,125.2z"/>
	</g>
	<g>
		<path class="st7" d="M1622.7,134.4H1602c-1,0-1.7-0.7-1.7-1.7s0.7-1.7,1.7-1.7h20.7c1,0,1.7,0.7,1.7,1.7
			C1624.4,133.7,1623.7,134.4,1622.7,134.4z"/>
	</g>
	<g>
		<path class="st7" d="M1612.3,144.8c-1,0-1.7-0.7-1.7-1.7v-20.7c0-1,0.7-1.7,1.7-1.7s1.7,0.7,1.7,1.7v20.7
			C1614,144.1,1613.3,144.8,1612.3,144.8z"/>
	</g>
	<g>
		<g>
			<path class="st7" d="M1657.3,144.3h-11.4c-2.6,0-4.6-2.1-4.6-4.6v-7.4c0-2.6,2.1-4.6,4.6-4.6h11.4c2.6,0,4.6,2.1,4.6,4.6v7.4
				C1661.9,142.2,1659.8,144.3,1657.3,144.3z M1645.9,131.1c-0.6,0-1.1,0.5-1.1,1.1v7.4c0,0.6,0.5,1.1,1.1,1.1h11.4
				c0.6,0,1.1-0.5,1.1-1.1v-7.4c0-0.6-0.5-1.1-1.1-1.1H1645.9z"/>
		</g>
		<g>
			<path class="st7" d="M1663.5,137.7h-3.4c-1,0-1.7-0.7-1.7-1.7s0.7-1.7,1.7-1.7h3.4c0.6,0,1.1-0.5,1.1-1.1v-7.4
				c0-0.6-0.5-1.1-1.1-1.1h-11.4c-0.6,0-1.1,0.5-1.1,1.1v3.7c0,1-0.7,1.7-1.7,1.7s-1.7-0.7-1.7-1.7v-3.7c0-2.5,2.1-4.6,4.6-4.6h11.4
				c2.5,0,4.6,2.1,4.6,4.6v7.4C1668.1,135.6,1666.1,137.7,1663.5,137.7z"/>
		</g>
	</g>
</g>
<g id="Layer_3">
	<rect x="622.1" y="159.7" class="st2" width="491.1" height="610.8"/>
	<path class="st15" d="M1035.1,311.6H666.8c-4.2,0-7.6-3.4-7.6-7.6v-7.1c0-4.2,3.4-7.6,7.6-7.6h368.3c4.2,0,7.6,3.4,7.6,7.6v7.1
		C1042.7,308.1,1039.3,311.6,1035.1,311.6z"/>
	
		<radialGradient id="SVGID_1_" cx="820.15" cy="1561.9677" r="114.0057" gradientTransform="matrix(1 0 0 -0.1727 0 614.7822)" gradientUnits="userSpaceOnUse">
		<stop  offset="0" style="stop-color:#51F9FD"/>
		<stop  offset="1" style="stop-color:#039DFD"/>
	</radialGradient>
	<path class="st16" d="M977,356.2H663.3c-2.2,0-4-1.7-4-4V338c0-2.2,1.7-4,4-4H977c2.2,0,4,1.7,4,4v14.2
		C981,354.4,979.1,356.2,977,356.2z"/>
	<path class="st15" d="M1035.1,400.8H666.8c-4.2,0-7.6-3.4-7.6-7.6v-7.1c0-4.2,3.4-7.6,7.6-7.6h368.3c4.2,0,7.6,3.4,7.6,7.6v7.1
		C1042.7,397.4,1039.3,400.8,1035.1,400.8z"/>
	<path class="st15" d="M996,445.5H666.8c-4.2,0-7.6-3.4-7.6-7.6v-7.1c0-4.2,3.4-7.6,7.6-7.6h329.1c4.2,0,7.6,3.4,7.6,7.6v7.1
		C1003.6,442.2,1000.1,445.5,996,445.5z"/>
	<rect x="663.8" y="482.1" class="st17" width="366.6" height="245.4"/>
	
		<radialGradient id="SVGID_2_" cx="667.4025" cy="555.2" r="86.8035" gradientTransform="matrix(1 0 0 -1 0 1160)" gradientUnits="userSpaceOnUse">
		<stop  offset="0" style="stop-color:#51F9FD"/>
		<stop  offset="1" style="stop-color:#039DFD"/>
	</radialGradient>
	<rect x="663.8" y="482.1" class="st18" width="7.4" height="245.4"/>
	<path class="st15" d="M991.7,537.1H700.3c-4.2,0-7.6-3.4-7.6-7.6v-11.6c0-4.2,3.4-7.6,7.6-7.6h291.5c4.2,0,7.6,3.4,7.6,7.6v11.6
		C999.4,533.7,995.9,537.1,991.7,537.1z"/>
	<path class="st15" d="M966.9,635.7H696.6c-2.2,0-4-1.7-4-4v-7.1c0-2.2,1.7-4,4-4h270.2c2.2,0,4,1.7,4,4v7.1
		C970.9,633.8,969.1,635.7,966.9,635.7z"/>
	<path class="st15" d="M966.9,691.5H696.6c-2.2,0-4-1.7-4-4v-7.1c0-2.2,1.7-4,4-4h270.2c2.2,0,4,1.7,4,4v7.1
		C970.9,689.6,969.1,691.5,966.9,691.5z"/>
	<g>
		<g>
			<g>
				<path class="st7" d="M800.8,211.9c0.4-0.1,0.2-0.5,0.4-0.9c1.7-7.4,7.2-12.6,14.6-13.9c0.7-0.1,0.9-0.4,1.1-1
					c2.4-10.1,10.7-17.7,21-19.1c12.7-1.6,24.6,6.4,27.6,19c0.2,0.9,0.5,1,1.2,1c4.2-0.2,8.4,0.5,12,3c3.9,2.6,6.4,6.2,7.5,10.9
					c0.4,1.7-0.4,3.1-1.7,3.4c-1.5,0.4-2.7-0.5-3.1-2.2c-1.5-6-6.6-10.1-12.9-9.9c-2.5,0.1-4.7,0.9-6.7,2.2c-1,0.7-2.2,0.6-3.1,0
					s-1.1-1.7-0.9-2.7c0.2-0.9,1-1.4,1.7-1.9c1.5-0.9,1.5-0.9,1-2.6c-2.2-8.6-10-14.9-18.6-15.1c-9.2-0.1-17.1,5.5-19.7,14.2
					c-0.2,0.9-0.1,1.2,0.7,1.4c2,0.4,3.9,1.2,5.5,2.4c1.5,1,1.9,2.5,1,3.7s-2.4,1.5-3.9,0.5c-6.7-4.4-15.5-1.7-18.6,5.4
					c-3.6,8.1,2.4,17.5,11.2,17.5c8.7,0,17.4,0,26.1,0c1.2,0,2.2,0.2,2.9,1.5c0.7,1.6-0.4,3.5-2.2,3.6c-1.1,0-2.4,0-3.5,0
					c-7.6,0-15.1,0-22.7,0c-8.6,0-15.6-5.5-17.6-14c-0.1-0.2,0-0.6-0.4-0.9C800.8,215.5,800.8,213.8,800.8,211.9z"/>
			</g>
		</g>
		<g>
			<path class="st7" d="M854.9,228h-2v-7.4c-0.7,0.6-1.5,1.1-2.5,1.5v-1.7c0.5-0.1,1.1-0.5,1.6-1c0.6-0.5,1-1,1.2-1.6h1.6V228H854.9
				z"/>
		</g>
		<g>
			<path class="st7" d="M854.9,243.6h-2v-7.4c-0.7,0.6-1.5,1.1-2.5,1.5V236c0.5-0.1,1.1-0.5,1.6-1c0.6-0.5,1-1,1.2-1.6h1.6v10.2
				L854.9,243.6L854.9,243.6z"/>
		</g>
		<g>
			<path class="st7" d="M863.1,243.6h-2v-7.4c-0.7,0.6-1.5,1.1-2.5,1.5V236c0.5-0.1,1.1-0.5,1.6-1c0.6-0.5,1-1,1.2-1.6h1.6v10.2
				L863.1,243.6L863.1,243.6z"/>
		</g>
		<g>
			<path class="st7" d="M871.2,243.6h-2v-7.4c-0.7,0.6-1.5,1.1-2.5,1.5V236c0.5-0.1,1.1-0.5,1.6-1c0.6-0.5,1-1,1.2-1.6h1.6v10.2
				L871.2,243.6L871.2,243.6z"/>
		</g>
		<g>
			<path class="st7" d="M861.3,217.8c1,0,1.7,0.4,2.4,1c0.6,0.9,1,2.2,1,4.1s-0.4,3.4-1,4.1c-0.5,0.7-1.4,1-2.4,1s-1.7-0.4-2.4-1.1
				c-0.6-0.7-0.9-2.1-0.9-4.1c0-1.9,0.4-3.2,1-4.1C859.6,218.1,860.4,217.8,861.3,217.8z M861.3,219.4c-0.2,0-0.5,0.1-0.6,0.2
				c-0.1,0.1-0.4,0.4-0.4,0.7c-0.1,0.5-0.2,1.4-0.2,2.5c0,1.2,0,2,0.1,2.5s0.2,0.7,0.5,0.9c0.1,0.1,0.4,0.2,0.6,0.2
				c0.2,0,0.5-0.1,0.6-0.2c0.1-0.1,0.4-0.4,0.4-0.7c0.1-0.5,0.2-1.4,0.2-2.5c0-1.2,0-2-0.1-2.5s-0.2-0.7-0.5-0.9
				C861.8,219.4,861.6,219.4,861.3,219.4z"/>
		</g>
		<g>
			<path class="st7" d="M879.9,228h-2v-7.4c-0.7,0.6-1.5,1.1-2.5,1.5v-1.7c0.5-0.1,1.1-0.5,1.6-1c0.6-0.5,1-1,1.2-1.6h1.6V228H879.9
				z"/>
		</g>
		<g>
			<path class="st7" d="M886.4,217.8c1,0,1.7,0.4,2.4,1c0.6,0.9,1,2.2,1,4.1s-0.4,3.4-1,4.1c-0.5,0.7-1.4,1-2.4,1s-1.7-0.4-2.4-1.1
				c-0.6-0.7-0.9-2.1-0.9-4.1c0-1.9,0.4-3.2,1-4.1C884.7,218.1,885.4,217.8,886.4,217.8z M886.4,219.4c-0.2,0-0.5,0.1-0.6,0.2
				c-0.1,0.1-0.4,0.4-0.4,0.7c-0.1,0.5-0.2,1.4-0.2,2.5c0,1.2,0,2,0.1,2.5s0.2,0.7,0.5,0.9c0.1,0.1,0.4,0.2,0.6,0.2s0.5-0.1,0.6-0.2
				c0.1-0.1,0.4-0.4,0.4-0.7c0.1-0.5,0.2-1.4,0.2-2.5c0-1.2,0-2-0.1-2.5s-0.2-0.7-0.5-0.9C886.9,219.4,886.7,219.4,886.4,219.4z"/>
		</g>
		<g>
			<path class="st7" d="M877.7,233.4c1,0,1.7,0.4,2.4,1c0.6,0.9,1,2.2,1,4.1s-0.4,3.4-1,4.1c-0.5,0.7-1.4,1-2.4,1s-1.7-0.4-2.4-1.1
				c-0.6-0.7-0.9-2.1-0.9-4.1c0-1.9,0.4-3.2,1-4.1C875.9,233.8,876.7,233.4,877.7,233.4z M877.7,235c-0.2,0-0.5,0.1-0.6,0.2
				c-0.1,0.1-0.4,0.4-0.4,0.7c-0.1,0.5-0.2,1.4-0.2,2.5c0,1.2,0,2,0.1,2.5s0.2,0.7,0.5,0.9c0.1,0.1,0.4,0.2,0.6,0.2s0.5-0.1,0.6-0.2
				c0.1-0.1,0.4-0.4,0.4-0.7c0.1-0.5,0.2-1.4,0.2-2.5c0-1.2,0-2-0.1-2.5s-0.2-0.7-0.5-0.9S877.9,235,877.7,235z"/>
		</g>
		<g>
			<path class="st7" d="M852.1,247.1c0.7,0,1.2,0.2,1.7,0.7c0.5,0.6,0.7,1.6,0.7,3.1c0,1.4-0.2,2.5-0.7,3.1c-0.4,0.5-1,0.7-1.7,0.7
				s-1.4-0.2-1.7-0.9c-0.5-0.6-0.6-1.6-0.6-3s0.2-2.5,0.7-3.1C850.7,247.4,851.3,247.1,852.1,247.1z M852.1,248.2
				c-0.1,0-0.4,0-0.5,0.1s-0.2,0.4-0.4,0.6c-0.1,0.4-0.1,1-0.1,1.9s0,1.5,0.1,1.9s0.2,0.5,0.4,0.6c0.1,0.1,0.2,0.1,0.5,0.1
				s0.4,0,0.5-0.1s0.2-0.4,0.4-0.6c0.1-0.4,0.1-1,0.1-1.9s0-1.5-0.1-1.9s-0.2-0.5-0.4-0.6C852.3,248.4,852.2,248.2,852.1,248.2z"/>
		</g>
		<g>
			<path class="st7" d="M859.2,254.6h-1.5v-5.5c-0.5,0.5-1.1,0.9-1.9,1.1v-1.4c0.4-0.1,0.7-0.4,1.2-0.7c0.5-0.4,0.7-0.7,0.9-1.2h1.1
				v7.7L859.2,254.6L859.2,254.6z"/>
		</g>
		<g>
			<path class="st7" d="M863.7,247c0.7,0,1.2,0.2,1.7,0.7c0.5,0.6,0.7,1.6,0.7,3.1c0,1.4-0.2,2.5-0.7,3.1c-0.4,0.5-1,0.7-1.7,0.7
				s-1.4-0.2-1.7-0.9s-0.6-1.6-0.6-3s0.2-2.5,0.7-3.1C862.4,247.2,862.9,247,863.7,247z M863.7,248.1c-0.1,0-0.4,0-0.5,0.1
				s-0.2,0.4-0.4,0.6c-0.1,0.4-0.1,1-0.1,1.9s0,1.5,0.1,1.9s0.2,0.5,0.4,0.6c0.1,0.1,0.2,0.1,0.5,0.1s0.4,0,0.5-0.1s0.2-0.4,0.4-0.6
				c0.1-0.4,0.1-1,0.1-1.9s0-1.5-0.1-1.9s-0.2-0.5-0.4-0.6C864.1,248.2,863.8,248.1,863.7,248.1z"/>
		</g>
		<g>
			<path class="st7" d="M870.8,254.5h-1.5V249c-0.5,0.5-1.1,0.9-1.9,1.1v-1.2c0.4-0.1,0.7-0.4,1.2-0.7c0.5-0.4,0.7-0.7,0.9-1.2h1.1
				v7.6h0.2V254.5z"/>
		</g>
		<g>
			<path class="st7" d="M883.4,247c0.7,0,1.2,0.2,1.7,0.7c0.5,0.6,0.7,1.6,0.7,3.1c0,1.4-0.2,2.5-0.7,3.1c-0.4,0.5-1,0.7-1.7,0.7
				s-1.4-0.2-1.7-0.9c-0.4-0.6-0.6-1.6-0.6-3s0.2-2.5,0.7-3.1C882,247.2,882.7,247,883.4,247z M883.4,248.1c-0.1,0-0.4,0-0.5,0.1
				s-0.2,0.4-0.4,0.6c-0.1,0.4-0.1,1-0.1,1.9s0,1.5,0.1,1.9s0.2,0.5,0.4,0.6c0.1,0.1,0.2,0.1,0.5,0.1c0.1,0,0.4,0,0.5-0.1
				s0.2-0.4,0.4-0.6c0.1-0.4,0.1-1,0.1-1.9s0-1.5-0.1-1.9s-0.2-0.5-0.4-0.6C883.7,248.2,883.5,248.1,883.4,248.1z"/>
		</g>
		<g>
			<path class="st7" d="M877,255.4c0.7,0,1.2,0.2,1.7,0.7c0.5,0.6,0.7,1.6,0.7,3.1c0,1.4-0.2,2.5-0.7,3.1c-0.4,0.5-1,0.7-1.7,0.7
				s-1.4-0.2-1.7-0.9c-0.5-0.6-0.6-1.6-0.6-3s0.2-2.5,0.7-3.1C875.8,255.6,876.3,255.4,877,255.4z M877,256.5c-0.1,0-0.4,0-0.5,0.1
				s-0.2,0.4-0.4,0.6c-0.1,0.4-0.1,1-0.1,1.9s0,1.5,0.1,1.9s0.2,0.5,0.4,0.6c0.1,0.1,0.2,0.1,0.5,0.1c0.1,0,0.4,0,0.5-0.1
				s0.2-0.4,0.4-0.6c0.1-0.4,0.1-1,0.1-1.9s0-1.5-0.1-1.9s-0.2-0.5-0.4-0.6C877.4,256.6,877.3,256.5,877,256.5z"/>
		</g>
		<g>
			<path class="st7" d="M888.7,255.2c0.7,0,1.2,0.2,1.7,0.7c0.5,0.6,0.7,1.6,0.7,3.1c0,1.4-0.2,2.5-0.7,3.1c-0.4,0.5-1,0.7-1.7,0.7
				s-1.4-0.2-1.7-0.9c-0.4-0.6-0.6-1.6-0.6-3s0.2-2.5,0.7-3.1C887.4,255.5,887.9,255.2,888.7,255.2z M888.7,256.4
				c-0.1,0-0.4,0-0.5,0.1s-0.2,0.4-0.4,0.6c-0.1,0.4-0.1,1-0.1,1.9s0,1.5,0.1,1.9s0.2,0.5,0.4,0.6c0.1,0.1,0.2,0.1,0.5,0.1
				c0.2,0,0.4,0,0.5-0.1s0.2-0.4,0.4-0.6c0.1-0.4,0.1-1,0.1-1.9s0-1.5-0.1-1.9s-0.2-0.5-0.4-0.6C889,256.5,888.8,256.4,888.7,256.4z
				"/>
		</g>
		<g>
			<path class="st7" d="M851.1,257.4c0.5,0,1,0.2,1.2,0.6c0.4,0.5,0.5,1.2,0.5,2.2s-0.1,1.7-0.5,2.2c-0.2,0.4-0.7,0.6-1.2,0.6
				s-1-0.2-1.2-0.6s-0.5-1.1-0.5-2.2c0-1,0.1-1.7,0.5-2.2C850.2,257.5,850.6,257.4,851.1,257.4z M851.1,258.2c-0.1,0-0.2,0-0.4,0.1
				c-0.1,0.1-0.1,0.2-0.2,0.5c-0.1,0.2-0.1,0.7-0.1,1.4c0,0.6,0,1.1,0.1,1.4c0.1,0.2,0.1,0.4,0.2,0.5s0.2,0.1,0.4,0.1
				c0.1,0,0.2,0,0.4-0.1c0.1-0.1,0.1-0.2,0.2-0.5c0.1-0.2,0.1-0.7,0.1-1.4c0-0.6,0-1.1-0.1-1.4c-0.1-0.2-0.1-0.4-0.2-0.5
				S851.2,258.2,851.1,258.2z"/>
		</g>
		<g>
			<path class="st7" d="M856.3,262.9h-1.1v-4c-0.4,0.4-0.9,0.6-1.4,0.7v-1c0.2-0.1,0.6-0.2,0.9-0.5c0.4-0.2,0.5-0.5,0.6-0.9h0.9
				L856.3,262.9L856.3,262.9L856.3,262.9z"/>
		</g>
		<g>
			<path class="st7" d="M865.8,264c0.5,0,1,0.2,1.2,0.6c0.4,0.5,0.5,1.2,0.5,2.2s-0.1,1.7-0.5,2.2c-0.2,0.4-0.7,0.6-1.2,0.6
				s-1-0.2-1.2-0.6c-0.4-0.4-0.5-1.1-0.5-2.2c0-1,0.1-1.7,0.5-2.2C864.8,264.1,865.2,264,865.8,264z M865.8,264.9
				c-0.1,0-0.2,0-0.4,0.1s-0.1,0.2-0.2,0.5c-0.1,0.2-0.1,0.7-0.1,1.4c0,0.6,0,1.1,0.1,1.4c0.1,0.2,0.1,0.4,0.2,0.5
				c0.1,0.1,0.2,0.1,0.4,0.1c0.1,0,0.2,0,0.4-0.1c0.1-0.1,0.1-0.2,0.2-0.5c0.1-0.2,0.1-0.7,0.1-1.4c0-0.6,0-1.1-0.1-1.4
				c-0.1-0.2-0.1-0.4-0.2-0.5S865.9,264.9,865.8,264.9z"/>
		</g>
		<g>
			<path class="st7" d="M870.9,269.5h-1.1v-4c-0.4,0.4-0.9,0.6-1.4,0.7v-1c0.2-0.1,0.6-0.2,0.9-0.5c0.4-0.2,0.5-0.5,0.6-0.9h0.9
				L870.9,269.5L870.9,269.5L870.9,269.5z"/>
		</g>
		<g>
			<path class="st7" d="M890.4,254.5h-1.5V249c-0.5,0.5-1.1,0.9-1.9,1.1v-1.2c0.4-0.1,0.7-0.4,1.2-0.7c0.5-0.4,0.7-0.7,0.9-1.2h1.1
				v7.6h0.2V254.5z"/>
		</g>
		<g>
			<path class="st7" d="M884.2,262.9h-1.5v-5.5c-0.5,0.5-1.1,0.9-1.9,1.1v-1.4c0.4-0.1,0.7-0.4,1.2-0.7c0.5-0.4,0.7-0.7,0.9-1.2h1.1
				v7.7H884.2z"/>
		</g>
	</g>
</g>
<g id="Layer_2_1_">
	
		<radialGradient id="SVGID_3_" cx="1392.5" cy="649.1369" r="292.6116" gradientTransform="matrix(1 0 0 -1.5307 0 1458.7339)" gradientUnits="userSpaceOnUse">
		<stop  offset="0" style="stop-color:#51F9FD"/>
		<stop  offset="1" style="stop-color:#0359DF"/>
	</radialGradient>
	<rect x="1113.2" y="159.7" class="st19" width="558.6" height="610.8"/>
	<g>
		<path class="st7" d="M1241.9,305.8c0.4,0,0.6,0.1,1,0.1c3.1,0.1,6.2,0.1,9.4,0.1c5.6,0.1,11.4,0.4,17,0.5
			c3.7,0.1,7.5,0.2,11.4,0.5c6.5,0.4,12.9,0.7,19.4,1.2c5.2,0.4,10.6,0.9,15.9,1.5c6.6,0.7,13.2,1.6,19.9,2.5
			c7.4,1,14.6,2.2,21.9,3.6c13.7,2.7,27.4,6.1,40.4,11.4c3.7,1.5,7.4,3.2,11,4.9c0.2,0.1,0.5,0.2,0.7,0.5c-0.5,2.1-1,4.1-1.2,6.1
			c-1.1,6.4-1.1,12.9,0.5,19.2c2.5,10.1,8.7,17.2,18,21.6c3.4,1.6,6.9,2.7,10.4,3.5c0.5,0.1,1,0.1,1.6,0.1c5,0,9.9,0,14.9,0
			c2,0,3.9,0.1,5.7,0.6c7.9,2,15.7,4.1,23.4,7.1c2.6,1,5.1,2.2,7.6,3.4c0.2,0.1,0.6,0.2,1,0.4c0-1.4,0-2.7,0-4c3.5,5,8.2,8,14.1,10
			c-0.2-1.9-0.5-3.6-0.7-5.4l0.1-0.1c0.2,0.2,0.5,0.5,0.6,0.7c2.6,2.9,5.2,5.6,8.1,8c1.6,1.4,3.4,2.5,5.1,3.7c0.4,0.2,1,0.5,1.6,0.9
			c-0.2-2.6-0.9-5-1.1-7.6c0.9,0.9,1.5,1.6,2.1,2.2c3.4,3.4,6.7,6.7,10.1,10.2c1.2,1.2,2.5,2,4.4,1.6c1.5-0.2,3.1-0.2,4.7-0.2
			c0.4,0,0.7,0,1.1,0c1.7,2.6,3.5,5.2,5.2,7.9c1.5,2.2,3.1,4.5,4.7,6.9c0.4,0.5,0.7,1,1,1.6c0.9,1.6,0.6,2.1-1,3
			c0.1,0.2,0.2,0.5,0.4,0.6c4.4,4.5,9.4,8.1,15.5,10c1.7,0.5,3.5,0.9,5.4,1.4c-0.2,0.1-0.4,0.4-0.6,0.5c-2.9,2.1-5.6,4.2-8.5,6.4
			c-0.9,0.6-1.5,1.4-2.4,2.2c-0.6-0.6-1.2-1.2-1.9-2c-5.5-5.6-11.5-10.6-18.6-14.4c-1.7-1-3.7-1.7-5.5-2.6c-2.4-1.1-4.5-2.4-6.5-4.1
			c-0.4-0.4-0.6-0.6-1-1c-1-1.1-1.5-2.5-1.5-4c0-1.6-0.1-3.4-0.1-5c-0.1-0.1-0.4-0.2-0.5-0.4c-14.1-6.7-28.2-13.1-42.9-18.5
			c-6.4-2.4-12.9-4.6-19.6-6.2c-2.6-0.6-5.4-1-8.1-1.1c-3.7-0.1-7.4-0.2-11.1-0.2c-7.2,0-13.9,1.9-20.1,5.5
			c-8.5,4.9-15.2,11.4-19.9,20c-3,5.5-4.9,11.2-5.6,17.4c-0.2,2.1-0.5,4.1-0.6,6.2c-0.1,2.9,0.2,5.6,0.7,8.4
			c1.2,6.6,3.5,12.9,7.1,18.6c5.6,8.9,13.4,14.9,23.2,18.2c3.9,1.4,7.9,2.2,12,2.7c1,0.1,2,0.1,3,0.2c3.7,0.1,7.5,0.4,11.4,0.5
			c4.5,0.2,9.1,0.4,13.6,0.6c3.6,0.1,7.2,0.4,10.9,0.6c3.9,0.4,7.9,0.7,11.7,1.2c5,0.7,10,1.5,15,2.4c15.1,2.9,29.7,7.2,43.7,13.7
			c9.9,4.6,19.2,10.2,27.5,17.4c8.6,7.4,15.6,16,20.7,26.1c2.6,5.1,4.6,10.6,6,16.2c0,0.2,0.1,0.4,0.1,0.6c0,0.1,0,0.2,0,0.6
			c-0.1-0.2-0.2-0.4-0.4-0.5c-3.9-9.9-9.6-18.6-16.7-26.6c-8.2-9.2-18.1-16.7-29.1-22.4c-10.9-5.6-22.4-9.4-34.4-11.5
			c-0.5-0.1-0.9-0.1-1.4,0c0.1,0.1,0.2,0.4,0.5,0.5c6,4.4,11.7,9.1,17.1,14.2c13,12.4,24.1,26.2,32.4,42.1c5.6,10.7,9.5,22,11.6,34
			c0.7,4.2,1.2,8.6,1.4,13c0.1,2.1,0.1,4.2,0.1,6.4c-0.2-1.5-0.5-3.1-0.9-4.6c-1.2-6.6-3-13.1-5-19.5c-2.6-8.2-5.9-16.2-9.7-24
			c-6.2-12.6-14-24.2-23.9-34.5c-15-15.6-33-25.9-54.1-30.7c-6-1.4-12.1-2.4-18.4-2.7c-3.7-0.2-7.6-0.2-11.5-0.2
			c-4.1-0.1-8.2-0.1-12.4-0.2c-2.9,0-5.6-0.1-8.5-0.2c-3.7-0.1-7.5-0.7-11.1-1.6c-6.6-1.6-13-4-18.9-7.5
			c-12.7-7.6-20.7-18.6-24.5-33c-1.4-5.5-2.1-11.1-1.9-16.7c0.4-10.5,2.2-20.7,6.7-30.4c4.1-8.9,10-16.1,18.1-21.6
			c2.4-1.6,4.7-3,7.4-4.1c0.4-0.1,0.6-0.2,1-0.5c-0.1-0.4-0.2-0.6-0.4-0.9c-4.2-9.1-8.2-18.2-11.6-27.7c-1.9-5.4-3.6-10.9-4.7-16.5
			c-0.2-1.4-0.5-2.6-0.6-4c-0.1-0.7-0.4-1.1-1-1.4c-3-1.2-6-2.6-9-3.9c-9.7-3.7-19.7-6.6-30-9.1c-11.2-2.9-22.6-5.2-34.1-7.1
			c-7.5-1.2-14.9-2.5-22.4-3.5c-5.7-0.9-11.6-1.5-17.4-2.2c-6.2-0.7-12.4-1.4-18.6-2c-4.2-0.5-8.5-0.7-12.7-1.1
			c-4.9-0.4-9.6-0.9-14.5-1.2c-3.4-0.2-6.7-0.5-10.1-0.7c-5.7-0.4-11.4-0.7-17.1-1c-2.5-0.1-5-0.2-7.6-0.4c-2.6-0.1-5.2-0.2-7.7-0.5
			c3.2-0.1,6.5-0.2,9.6-0.2c4.1-0.1,8.2-0.1,12.4-0.2c0.2,0,0.5-0.1,0.7-0.1C1228.2,305.8,1235.1,305.8,1241.9,305.8z M1548,431.5
			c0-0.2,0-0.2,0-0.4c-1.4-1.9-2.7-3.7-4.1-5.6c-0.1-0.2-0.5-0.4-0.9-0.6c-0.4,1-0.2,2-0.2,2.9c0,0.1,0.1,0.2,0.1,0.2
			C1544.3,429.5,1545.8,430.9,1548,431.5z"/>
		<path class="st7" d="M1180.4,362.6c4.1-0.9,8.2-1.7,12.4-2.6c7.9-1.5,15.7-3,23.6-4.4c7.2-1.2,14.6-2.4,21.9-3.5
			c5.4-0.9,10.6-1.5,16-2.2c4.9-0.6,9.7-1.2,14.6-1.9c3.5-0.4,7.1-0.7,10.6-1.1c4-0.4,8-0.9,11.9-1.2c2.7-0.2,5.5-0.5,8.4-0.7
			c4.4-0.4,8.6-0.7,13-1c2.6-0.2,5.4-0.4,8-0.5c5.4-0.2,10.9-0.6,16.2-0.9c3.6-0.1,7.1-0.2,10.7-0.4c4-0.1,8.1-0.1,12.1-0.2
			c4.7,0,9.4-0.1,14.1-0.1c4,0,7.9,0.1,11.9,0.2c3.9,0.1,7.9,0.2,11.7,0.4c0.6,0,1.2,0.1,2,0.1c0.6,2.6,1.2,5.2,2,7.9
			c-1.1,0-2.2-0.1-3.2-0.1c-2.1-0.1-4.2-0.2-6.4-0.4c-4.2-0.1-8.5-0.4-12.9-0.5c-2.7-0.1-5.5-0.1-8.2-0.2
			c-9.1-0.1-18.2-0.1-27.4-0.2c-4.1,0-8.1,0-12.2,0.1c-3.1,0-6.1,0.1-9.2,0.2c-4.2,0.1-8.5,0.2-12.7,0.4c-4.6,0.2-9.4,0.4-14,0.6
			c-4.7,0.2-9.6,0.5-14.4,0.9c-5,0.4-9.9,0.6-14.9,1.1c-6.5,0.5-13,1.1-19.4,1.7c-6,0.6-12.1,1.2-18.1,1.9c-8.4,1-16.7,2-25.1,3.2
			c-7.2,1-14.5,2.2-21.6,3.2c-0.5,0.1-0.9,0.1-1.4,0.1C1180.4,362.7,1180.4,362.6,1180.4,362.6z"/>
		<path class="st7" d="M1402.7,356.2c0.9,2.9,1.7,5.6,2.6,8.5c-0.4,0-0.7,0.1-1,0.1c-3.9,0.1-7.6,0.1-11.5,0.4
			c-4.6,0.2-9.1,0.7-13.7,1.1c-6.6,0.6-13.1,1.6-19.6,2.9c-10.6,1.9-21,4.2-31.4,7.1c-17.7,4.7-35.2,10.7-52.3,17.4
			c-13.9,5.5-27.6,11.4-41,18c-6.6,3.2-13.1,6.6-19.6,10c-0.4,0.2-0.7,0.4-1.1,0.6c0-0.1-0.1-0.1-0.1-0.2c0.2-0.2,0.5-0.4,0.9-0.6
			c10.4-6.4,21.1-12.4,32-18c20.4-10.4,41.4-19.2,63-26.7c17.5-6,35.2-10.9,53.3-14.7c7.7-1.6,15.6-3.1,23.5-4.1
			c4.9-0.6,9.7-1.1,14.6-1.7C1401.4,356.2,1402,356.2,1402.7,356.2z"/>
	</g>
</g>
<g id="Layer_10">
	<path class="st7" d="M1083.2,474.4l-37-38.1c-2.1-2.2-5.9-0.7-5.9,2.4l0.1,53.1c0,3.4,4.5,4.7,6.4,1.7l8.5-13.6
		c1.9-3,5.5-4.5,8.9-3.6l15.6,3.9C1083.3,480.9,1085.6,476.8,1083.2,474.4z"/>
</g>
</svg>
