<?xml version="1.0" encoding="utf-8"?>
<!-- Generator: Adobe Illustrator 21.0.0, SVG Export Plug-In . SVG Version: 6.00 Build 0)  -->
<svg version="1.1" id="Layer_1" xmlns="http://www.w3.org/2000/svg" xmlns:xlink="http://www.w3.org/1999/xlink" x="0px" y="0px"
	 viewBox="0 0 1003.5 1276.7" style="enable-background:new 0 0 1003.5 1276.7;" xml:space="preserve">
<style type="text/css">
	.st0{fill:url(#SVGID_1_);}
	.st1{fill:url(#SVGID_2_);}
	.st2{fill:url(#SVGID_3_);}
	.st3{fill:url(#SVGID_4_);}
	.st4{fill:url(#SVGID_5_);}
	.st5{fill:url(#SVGID_6_);}
	.st6{fill:url(#SVGID_7_);}
	.st7{fill:url(#SVGID_8_);}
	.st8{fill:url(#SVGID_9_);}
	.st9{fill:url(#SVGID_10_);}
	.st10{fill:#F9087B;}
	.st11{clip-path:url(#SVGID_12_);}
	.st12{fill:url(#SVGID_13_);}
	.st13{fill:url(#SVGID_14_);}
	.st14{opacity:0.14;fill:url(#SVGID_15_);}
	.st15{fill:#111A5E;}
	.st16{opacity:0.43;fill:#C5EBED;}
</style>
<g>
	<linearGradient id="SVGID_1_" gradientUnits="userSpaceOnUse" x1="873.7631" y1="1269.5024" x2="63.5295" y2="560.3264">
		<stop  offset="0" style="stop-color:#3C57F7"/>
		<stop  offset="1" style="stop-color:#A0C7EA"/>
	</linearGradient>
	<path class="st0" d="M1003.5,1054.6l-666.6,211.3l1.8-14.4l13.8-108.7l78.4-213.1c0,0,452.1-47,487.6-37.7
		c35.5,9.3,74.5,15.5,74.5,15.5l-1.8,118.8L1003.5,1054.6z"/>
	<linearGradient id="SVGID_2_" gradientUnits="userSpaceOnUse" x1="-619.5319" y1="76.3883" x2="1006.2847" y2="797.9885">
		<stop  offset="0" style="stop-color:#3C57F7"/>
		<stop  offset="1" style="stop-color:#A0C7EA"/>
	</linearGradient>
	<polygon class="st1" points="992.9,907.5 379.4,1132.9 352.4,1142.7 23.1,246.2 45.3,238 49.2,236.6 663.5,10.9 	"/>
	<linearGradient id="SVGID_3_" gradientUnits="userSpaceOnUse" x1="329.4854" y1="1353.9736" x2="138.0049" y2="616.4191">
		<stop  offset="0" style="stop-color:#3C57F7"/>
		<stop  offset="1" style="stop-color:#A0C7EA"/>
	</linearGradient>
	<path class="st2" d="M23,246.2c0,0-23,133-23,138.3c0,5.3,336.9,881.4,336.9,881.4l15.6-123.1L23,246.2z"/>
	<linearGradient id="SVGID_4_" gradientUnits="userSpaceOnUse" x1="758.4047" y1="1361.4799" x2="588.1998" y2="973.1999">
		<stop  offset="0" style="stop-color:#3C57F7"/>
		<stop  offset="1" style="stop-color:#A0C7EA"/>
	</linearGradient>
	<polygon class="st3" points="1003.5,1054.6 336.9,1265.9 338.7,1251.5 338.7,1251.5 989.3,1038.6 991.1,1026.3 	"/>
	<g>
		<linearGradient id="SVGID_5_" gradientUnits="userSpaceOnUse" x1="656.2063" y1="1094.3752" x2="624.6853" y2="975.3835">
			<stop  offset="0" style="stop-color:#3C57F7"/>
			<stop  offset="1" style="stop-color:#A0C7EA"/>
		</linearGradient>
		<polygon class="st4" points="346,1241.5 979.6,1034.3 985.9,1020.9 346,1233.7 		"/>
		<linearGradient id="SVGID_6_" gradientUnits="userSpaceOnUse" x1="656.9352" y1="1073.2097" x2="623.2364" y2="945.9965">
			<stop  offset="0" style="stop-color:#3C57F7"/>
			<stop  offset="1" style="stop-color:#A0C7EA"/>
		</linearGradient>
		<polygon class="st5" points="348.8,1224.3 979.6,1014.1 985.9,1000.9 348.8,1216.4 		"/>
		<linearGradient id="SVGID_7_" gradientUnits="userSpaceOnUse" x1="657.6642" y1="1052.0442" x2="621.7875" y2="916.6095">
			<stop  offset="0" style="stop-color:#3C57F7"/>
			<stop  offset="1" style="stop-color:#A0C7EA"/>
		</linearGradient>
		<polygon class="st6" points="351.6,1207.1 979.6,993.9 985.9,980.9 351.6,1199.2 		"/>
		<linearGradient id="SVGID_8_" gradientUnits="userSpaceOnUse" x1="658.3932" y1="1030.8787" x2="620.3386" y2="887.2225">
			<stop  offset="0" style="stop-color:#3C57F7"/>
			<stop  offset="1" style="stop-color:#A0C7EA"/>
		</linearGradient>
		<polygon class="st7" points="354.4,1189.9 979.6,973.8 985.9,960.8 354.4,1182 		"/>
		<linearGradient id="SVGID_9_" gradientUnits="userSpaceOnUse" x1="659.1222" y1="1009.7131" x2="618.8898" y2="857.8355">
			<stop  offset="0" style="stop-color:#3C57F7"/>
			<stop  offset="1" style="stop-color:#A0C7EA"/>
		</linearGradient>
		<polygon class="st8" points="357.2,1172.6 979.6,953.6 985.9,940.8 357.2,1164.7 		"/>
		<linearGradient id="SVGID_10_" gradientUnits="userSpaceOnUse" x1="659.8512" y1="988.5475" x2="617.4409" y2="828.4485">
			<stop  offset="0" style="stop-color:#3C57F7"/>
			<stop  offset="1" style="stop-color:#A0C7EA"/>
		</linearGradient>
		<polygon class="st9" points="360.1,1155.4 979.6,933.4 985.9,920.8 360.1,1147.5 		"/>
	</g>
	<path class="st10" d="M869.8,1155.4h-30.1l-9.5,35.7c0,0-40.2-64.3-40.2-69.8c0-1.5-0.9-7.9-2.2-16.7
		c-3.7-24.4-10.7-66.4-10.7-66.4l48.2-11.8l10.1,62.7l3.2,19.7l15.4,22.5L869.8,1155.4z"/>
	<g>
		<defs>
			<path id="SVGID_11_" d="M27.1,457.2c1.5,4.1,274.5,716.8,274.5,716.8l18.5-119.5l-238-647.7L27.1,457.2z"/>
		</defs>
		<clipPath id="SVGID_12_">
			<use xlink:href="#SVGID_11_"  style="overflow:visible;"/>
		</clipPath>
		<g class="st11">
			<g>
				
					<rect x="147" y="982.4" transform="matrix(0.2429 -0.97 0.97 0.2429 -768.3729 999.1234)" class="st10" width="217.8" height="18.9"/>
			</g>
			<g>
				<path class="st10" d="M199.3,1014.2l-18.2-5c0.1-0.5,12.6-45.9,26.8-92.3c29.4-96.3,37.3-102.7,41.1-105.8l11.9,14.7
					c0.1-0.1,0.2-0.1,0.3-0.2C252.1,835.2,222.6,929,199.3,1014.2z"/>
			</g>
			<g>
				
					<rect x="15.3" y="610.9" transform="matrix(0.2429 -0.97 0.97 0.2429 -507.8141 590.1393)" class="st10" width="217.8" height="18.9"/>
			</g>
			<g>
				<path class="st10" d="M67.5,642.8l-18.2-5c0.1-0.5,12.6-45.9,26.8-92.3c29.4-96.3,37.3-102.7,41.1-105.8l11.9,14.7
					c0.1-0.1,0.2-0.1,0.3-0.2C120.4,463.7,90.9,557.6,67.5,642.8z"/>
			</g>
		</g>
	</g>
	<linearGradient id="SVGID_13_" gradientUnits="userSpaceOnUse" x1="320.04" y1="1201.714" x2="320.0842" y2="1201.714">
		<stop  offset="0" style="stop-color:#E9EDFF;stop-opacity:0"/>
		<stop  offset="0.9946" style="stop-color:#A0C7EA;stop-opacity:0.4"/>
	</linearGradient>
	<path class="st12" d="M320,1201.7C320.1,1201.8,320.1,1201.8,320,1201.7C320.1,1201.7,320,1201.7,320,1201.7z"/>
	<linearGradient id="SVGID_14_" gradientUnits="userSpaceOnUse" x1="236.4939" y1="675.5904" x2="193.3715" y2="692.6013">
		<stop  offset="0" style="stop-color:#00003E"/>
		<stop  offset="0.9892" style="stop-color:#2946FF;stop-opacity:0"/>
	</linearGradient>
	<polygon class="st13" points="379.4,1132.9 352.4,1142.7 23.1,246.2 45.3,238 	"/>
	<linearGradient id="SVGID_15_" gradientUnits="userSpaceOnUse" x1="787.8033" y1="1140.0309" x2="869.8433" y2="1140.0309">
		<stop  offset="0" style="stop-color:#3C57F7"/>
		<stop  offset="0.9946" style="stop-color:#3A61C1"/>
	</linearGradient>
	<path class="st14" d="M869.8,1155.4h-30.1l-9.5,35.7c0,0-40.2-64.3-40.2-69.8c0-1.5-0.9-7.9-2.2-16.7l47.6-15.6l3.2,19.7l15.4,22.5
		L869.8,1155.4z"/>
	<g>
		<path class="st10" d="M471.3,1030.1l-3.6-8.1c-12.9-29.4-42-48.4-74.1-48.4c-7.3,0-14.5,1-21.6,2.9l-8.4,2.3L131,345.6l5.9-4.2
			c21.6-15.2,34.5-39.9,34.5-66.3c0-1.9-0.1-3.9-0.3-6.4l-0.6-7.1l383.7-141l4,6.7c14.8,24.6,40.8,39.2,69.4,39.2
			c4.3,0,8.7-0.4,13.1-1.1l7.7-1.3l233.1,634.4l-7.2,3.9c-26.1,14.2-42.3,41.5-42.3,71.1c0,4.9,0.5,9.9,1.4,14.9l1.5,7.9
			L471.3,1030.1z M393.6,954.7c36.6,0,70,20,87.5,51.7l332.7-122.2c-0.4-3.5-0.6-7-0.6-10.4c0-33.8,17.1-65.1,45.1-83.5L636,185.2
			c-2.8,0.2-5.6,0.4-8.4,0.4c-32.7,0-62.5-15.5-81.3-41.8L190.3,274.6c0,0.2,0,0.4,0,0.6c0,30-13.6,58.4-36.7,77.3l221.9,603.9
			C381.5,955.3,387.5,954.7,393.6,954.7z"/>
	</g>
	<g>
		<path class="st15" d="M423,380.2c3.2-0.5,6.3-1,9.5-1.4c48.7-7.5,87.6,8.8,116.8,48.4c2.8,3.8,4.9,4.7,9.2,2.8
			c22.3-9.6,45-11.1,67.8-1.7c15.8,6.5,28.3,17,37.6,31.4c4.4,6.8,3.4,13.7-2.5,17.6c-5.9,3.9-12.4,2.2-17.1-4.6
			c-24.6-35.2-70.9-36.5-97-2.7c-4.9,6.4-11.9,7.9-17.4,3.8c-5.6-4.1-6.2-11.6-1.3-18.3c6.2-8.6,6.2-8.6,0.2-17
			c-23.4-32.4-66.7-46.4-103.8-33.4c-39.7,13.8-65,50.7-63.1,91.8c0.1,2,0.3,4.1,0.4,5c11.3,0.9,21.9,1.3,32.4,2.9
			c8.4,1.2,12.7,7.4,11.3,14.3c-1.5,7.2-7.8,10.5-16.5,8.6c-29.1-6.2-56.9,8.4-67.9,35.5c-10.5,25.9-0.8,55.7,23.4,70.4
			c16.3,9.9,33.7,11.5,51.6,4.9c36.5-13.4,73-26.8,109.6-40.2c10.3-3.8,17.1-1.8,19.7,5.7c2.5,7.2-1.4,12.6-11.6,16.3
			c-36.3,13.3-72.7,26.7-109,40c-39,14.3-79.2,0.1-100.5-35.4c-0.6-1-1.4-1.8-2.1-2.7c-2.4-6.4-4.7-12.9-7.1-19.3
			c-0.1-1.5-0.2-3-0.4-4.4c-5.3-35.2,9.4-66.5,40.2-84.9c3.5-2.1,4.2-4.1,3.9-8.1c-3.7-47.3,14-84.3,53.4-110.9
			c4.1-2.7,8.4-5.1,12.6-7.6C410.9,384.7,417,382.4,423,380.2z"/>
		<path class="st15" d="M558.9,558.7c-1-5.9-2.2-10.7-2.4-15.5c-0.3-6.8,3.4-11.5,9.7-14c6-2.3,11.8-1.7,16.3,3.2
			c7.8,8.4,11.5,18.7,11.3,30.1c-0.1,6.1-3.8,10-9.4,12.3c-5.8,2.4-11.5,2.4-15.8-2.3C564.6,568.2,561.8,563,558.9,558.7z
			 M581.6,550.1c-2-3.6-3.7-7.5-6.2-10.8c-1.1-1.4-4.2-2.5-5.7-2c-1.6,0.6-3.7,3.7-3.3,5.1c2.3,7.7,5.1,15.3,8.3,22.7
			c0.6,1.3,4.2,2.5,5.7,1.9c1.5-0.5,3.3-3.4,3.2-5.2C583.6,558,582.4,554.1,581.6,550.1z"/>
		<path class="st15" d="M700.3,506.8c0.8,3.7,1.9,7.4,2.4,11.1c1.1,8.4-2.2,14.1-9.5,16.9c-7.9,3.1-14.7,1.8-18.8-5.8
			c-4.1-7.5-7-16-8.8-24.4c-1.6-7.1,2.7-12.6,9.3-15.4c6.4-2.7,12.7-1.3,17.6,4.2c1.3,1.4,2.4,3,3.3,4.7
			C697.3,500.9,698.7,503.8,700.3,506.8z M690.6,510.1c-1.8-3.5-3.2-7.2-5.5-10.1c-1.4-1.7-4.6-3-6.6-2.6c-1.4,0.3-3.5,4.1-3,5.7
			c2.2,7.4,4.8,14.6,8,21.6c0.7,1.5,4.5,2.8,6.1,2.2c1.6-0.7,3.2-3.8,3.1-5.8C692.6,517.4,691.3,513.7,690.6,510.1z"/>
		<path class="st15" d="M654.7,597.9c-0.7-3.3-1.9-7.4-2.2-11.5c-0.7-7.9,2.5-12.9,9.6-15.7c7-2.8,13.1-1.4,17.9,4.7
			c6.1,7.7,9.3,16.6,9.8,26.4c0.4,7.2-3.1,12-9.7,14.5c-7,2.7-12.6,1.4-17.5-4.2c-1.2-1.4-2.4-3-3.3-4.6
			C657.7,604.6,656.4,601.6,654.7,597.9z M664.6,595.9c1.8,3.3,3.5,7.2,6,10.5c1.1,1.4,4.4,2.8,5.7,2.1c1.7-0.8,3.9-4.1,3.5-5.6
			c-2.2-7.6-5-15-8.1-22.2c-0.6-1.4-4.3-2.6-5.7-2c-1.7,0.8-3.5,3.6-3.5,5.6C662.4,588,663.7,591.7,664.6,595.9z"/>
		<path class="st15" d="M615.7,638.8c-3.4,1.2-6.2,2.3-9.4,3.5c-4-10.9-7.9-21.5-12.1-33.1c-2.1,3.4-3.7,5.9-5.7,8.9
			c-2.1-1.2-4.1-2.4-6.9-4c5.7-6.9,6.4-17.7,18.1-19.2C605,609.5,610.3,623.9,615.7,638.8z"/>
		<path class="st15" d="M664.4,544.6c-3,1.1-5.8,2.1-9.1,3.3c-4-10.9-7.9-21.5-12.3-33.4c-2.4,3.5-4.1,6.1-6.1,9
			c-2.2-1.3-4.2-2.5-6.9-4c5.9-6.9,6.6-17.5,18.1-19.2C653.5,514.8,658.8,529.4,664.4,544.6z"/>
		<path class="st15" d="M555.3,584.6c-3,1.1-5.8,2.1-9.2,3.4c-4-10.8-7.9-21.6-12.2-33.3c-2.3,3.4-3.9,5.9-5.8,8.8
			c-2.2-1.3-4.2-2.5-6.9-4c5.9-6.8,6.5-17.5,18-19.2C544.4,555,549.8,569.7,555.3,584.6z"/>
		<path class="st15" d="M630,595.6c-2.4,3.8-4,6.4-5.9,9.4c-2.1-1.2-4.2-2.5-6.9-4.1c5.8-6.7,6.4-17.3,17.9-19.1
			c5.3,14.5,10.7,29,16.1,43.9c-2.9,1-5.6,2.1-8.9,3.3C638.2,618.2,634.3,607.5,630,595.6z"/>
		<path class="st15" d="M545.7,627c6.3-6.8,6.8-17.6,18.2-18.9c5.3,14.4,10.6,28.8,16,43.7c-2.8,1-5.7,2.1-9.2,3.4
			c-3.9-10.6-7.8-21.2-12.1-32.8c-2.3,3.4-3.9,5.8-5.8,8.8C550.6,629.8,548.6,628.7,545.7,627z"/>
		<path class="st15" d="M726.9,633.1c0.8,4.4,1.8,7.7,1.9,11.1c0.3,4.9-2.1,8.3-6.7,10.2c-4.5,1.9-8.8,1.7-12.1-1.9
			c-5.8-6.3-8.5-13.9-8.3-22.4c0.1-4.4,3-7.2,7.1-8.7c4.1-1.6,8.2-1.5,11.1,1.8C722.9,626.3,725,630.2,726.9,633.1z M719.9,637
			c-0.7-1.8-1-3.7-2.1-4.8c-1.9-1.9-4.4-3.3-6.6-5c-0.6,2.6-1.9,5.2-1.6,7.7c0.5,3.3,1.7,6.8,3.5,9.5c1.3,2,4.1,3,6.3,4.5
			c0.6-2.4,1.6-4.7,1.8-7.1C721.3,640.1,720.3,638.4,719.9,637z"/>
		<path class="st15" d="M689.7,689c-0.7-3.6-1.6-6.8-1.9-9.9c-0.5-5.4,2-9.1,7.1-11c5.1-1.9,10.1-0.9,12.5,3.7
			c3.1,5.7,5.3,12,6.8,18.4c1.2,5-2,8.7-6.7,10.6c-4.7,1.9-9.1,1.2-12.3-2.9C693,695,691.4,691.8,689.7,689z M705.3,682.5
			c-1-2.1-1.8-4.5-3.3-6.4c-1-1.2-3.3-2.5-4.6-2.1c-1.2,0.3-2.6,3.1-2.3,4.4c1.3,4.9,3,9.7,5.1,14.3c0.6,1.2,3,1.6,4.6,2.4
			c0.8-1.7,2.2-3.5,2.2-5.2C707.1,687.5,706,685.1,705.3,682.5z"/>
		<path class="st15" d="M763.7,662.1c0.4,3.8,1.9,7.8,1,11.2c-0.9,3.4-3.8,7.4-6.8,8.6c-3,1.2-8.4,0.4-10.8-1.7
			c-6.5-5.6-8.9-13.5-8.6-22c0.2-4.4,3.1-7.2,7.2-8.7c4.4-1.6,8.5-1,11.4,2.6C759.7,654.9,761.5,658.5,763.7,662.1z M747.4,667.4
			c1.2,2.3,2,5,3.6,7c1,1.2,3.3,2,4.7,1.7c1-0.2,2.4-2.9,2.1-4c-1.4-5.1-3.2-10.1-5.4-14.8c-0.5-1.2-3.5-2.3-4.6-1.8
			c-1.2,0.5-2.1,3-2.1,4.6C745.8,662.5,746.8,664.9,747.4,667.4z"/>
		<path class="st15" d="M641.2,665.2c0.6,4,1.5,7.5,1.7,11.1c0.2,4.7-2.3,7.8-6.6,9.7c-4.5,1.9-8.7,1.5-12-2.1c-5.5-6-8-13.2-8-21.3
			c0-4.4,2.7-7.2,6.8-8.9c4.3-1.7,8.4-1.5,11.5,2C637.3,658.6,639.2,662.2,641.2,665.2z M634.1,668.5c-1.3-2.5-2.2-5.1-3.8-7.1
			c-1-1.2-3.2-2-4.7-1.8c-0.9,0.2-2.4,2.9-2.1,4c1.5,5.1,3.2,10.1,5.4,14.9c0.5,1.2,3.2,2,4.7,1.9c0.9-0.1,2-2.7,2-4.1
			C635.6,673.6,634.7,671,634.1,668.5z"/>
		<path class="st15" d="M590.4,684.3c0.7,3.6,1.5,6.7,1.8,9.9c0.4,5.2-2.1,8.7-7,10.6c-4.9,1.9-9.8,1.2-12.2-3.1
			c-3.2-5.9-5.7-12.4-7.2-18.9c-1.2-4.9,2-8.6,6.9-10.5c4.9-1.9,9.1-1.1,12.3,3C587.1,678.1,588.7,681.4,590.4,684.3z M583.5,687
			c-1.4-2.5-2.5-5.2-4.2-7.4c-0.8-1.1-3.2-1.9-4.3-1.5c-1.1,0.4-2.5,2.9-2.2,3.9c1.5,5.2,3.4,10.4,5.7,15.4c0.5,1,3.2,2,4.3,1.5
			c1.1-0.4,2.2-2.6,2.1-4.1C584.9,692.3,584,689.7,583.5,687z"/>
		<path class="st15" d="M752.8,641.9c-4.5,3.5-7.1,3.5-8.8-2c-1.8-6.1-4.3-11.9-6.8-18.8c-1.9,2.6-3.1,4.2-4.5,6.1
			c-1.5-0.9-2.9-1.7-4.8-2.8c2.3-3.8,4.1-7.6,6.6-10.9c3.2-4.4,6.5-3.7,8.4,1.4C746.2,623.9,749.4,632.8,752.8,641.9z"/>
		<path class="st15" d="M595.5,678.5c-1.4-1.8-3.2-3.2-3.2-4.5c0-3.8,7.1-11.1,11.7-12.3c3.7,10.2,7.5,20.4,11.3,30.7
			c-5.6,3.8-6.1,3.7-8.3-2.2c-2.1-5.7-4.2-11.4-6.6-17.8C598.7,674.4,597.5,675.9,595.5,678.5z"/>
		<path class="st15" d="M646.2,659.9c-1.4-1.9-3.3-3.1-3.3-4.5c-0.1-3.6,7.2-11.1,11.6-12.4c3.7,10.2,7.5,20.4,11.5,31.3
			c-1.7,0.7-3.5,1.5-6,2.6c-2.9-7.8-5.6-15.3-8.7-23.8C649.4,655.6,648.2,657.2,646.2,659.9z"/>
		<path class="st15" d="M730.9,691.2c-2.9-7.8-5.5-15-8.4-23c-1.7,2.2-2.8,3.6-4.2,5.5c-1.4-0.7-2.8-1.4-4.2-2.1
			c3-8.8,5.9-12.2,12-13.8c3.7,10.2,7.5,20.4,11.4,31C735.5,689.5,733.7,690.1,730.9,691.2z"/>
		<path class="st15" d="M672.1,732.6c0.4,1.6,1.2,3.4,1.4,5.3c0.5,4.1-0.6,7.6-4.9,9.2c-4.1,1.6-7.7,0.6-9.8-3.2
			c-1.8-3.2-3.3-6.8-4.2-10.4c-1.1-4.5,0.2-8.2,5.2-9.9c5-1.7,7.9,0.9,10.3,4.7C671,729.5,671.4,731,672.1,732.6z M668.4,733.7
			c-2.7-2.3-4.9-4-7-5.8c-0.2,2.8-1.2,5.8-0.3,8.2c1,2.6,3.7,4.6,5.7,6.8C667.2,740,667.8,737.1,668.4,733.7z"/>
		<path class="st15" d="M598.3,727.4c3.1,8.6,1.3,13.6-5.4,14.9c-4.9,0.9-8.8-2.7-11.3-10.5c-2.2-6.8-1-11.2,3.6-13.3
			C590.6,716,595.3,719.2,598.3,727.4z M585.9,731.4c2.8,2.5,4.8,4.4,6.9,6.3c0.2-2.9,1.2-6.1,0.4-8.7c-0.8-2.5-3.5-4.3-5.4-6.4
			C587.1,725.4,586.5,728.2,585.9,731.4z"/>
		<path class="st15" d="M672.8,725c2.6-3.3,5.3-6.5,8.9-11.1c3.2,8.7,5.8,15.4,8,22.2c0.3,0.9-1,2.3-1.6,3.5
			c-1.2-0.6-2.9-0.9-3.4-1.8c-1.8-4.1-3.2-8.5-4.8-12.6c-2.2,0.7-4.2,1.3-6.1,1.9C673.5,726.3,673.1,725.7,672.8,725z"/>
		<path class="st15" d="M608,709.4c3,8.1,5.5,14.3,7.4,20.7c0.4,1.4-1,3.4-1.6,5.2c-0.7-0.1-1.3-0.2-2-0.3
			c-1.9-5.1-3.8-10.2-5.4-14.7c-2.4,0.4-4.3,0.8-6.1,1.1c0.5-1.8,0.7-3.9,1.6-5.4C603.3,713.9,605.3,712.3,608,709.4z"/>
	</g>
	<polygon class="st16" points="663.5,10.9 379.4,1099.2 49.2,236.6 	"/>
</g>
</svg>
