<?xml version="1.0" encoding="utf-8"?>
<!-- Generator: Adobe Illustrator 21.0.0, SVG Export Plug-In . SVG Version: 6.00 Build 0)  -->
<svg version="1.1" id="Layer_1" xmlns="http://www.w3.org/2000/svg" xmlns:xlink="http://www.w3.org/1999/xlink" x="0px" y="0px"
	 viewBox="0 0 1000 641.2" style="enable-background:new 0 0 1000 641.2;" xml:space="preserve">
<style type="text/css">
	.st0{fill:#FFFFFF;}
	.st1{fill:#88cc14;}
	.st2{opacity:0.42;fill:#591239;}
	.st3{opacity:0.19;fill:#591239;}
</style>
<g>
	<g>
		<g>
			<path class="st0" d="M424.1,464.5c0-8.5,1.5-14.4,4.6-17.9c3-3.5,7.6-5,13.9-5c3,0,5.4,0.4,7.4,1.1c2,0.7,3.5,1.7,4.8,2.8
				s2.2,2.4,2.8,3.7c0.7,1.3,1.3,2.8,1.7,4.6c0.9,3.3,1.3,6.8,1.3,10.5c0,8.1-1.3,14.2-4.1,17.9c-2.8,3.7-7.4,5.7-14.2,5.7
				c-3.7,0-6.8-0.7-9.1-1.7c-2.4-1.3-4.1-3-5.7-5.2c-1.1-1.7-2-3.9-2.6-6.8C424.5,471.2,424.1,467.9,424.1,464.5z M436.5,464.7
				c0,5.7,0.4,9.6,1.5,11.8c1.1,2.2,2.4,3,4.4,3c1.3,0,2.4-0.4,3.3-1.3c0.9-0.9,1.5-2.2,2-4.1c0.4-2,0.7-4.8,0.7-8.9
				c0-5.9-0.4-10-1.5-12c-1.1-2-2.6-3-4.6-3c-2,0-3.5,1.1-4.4,3C436.9,455.1,436.5,459,436.5,464.7z"/>
			<path class="st0" d="M494,441.6v45.5h-12.6v-29.8c-2,1.5-3.9,2.8-5.9,3.7c-2,0.9-4.4,2-7.2,2.8v-10.2c4.1-1.3,7.6-3,9.8-5
				c2.4-2,4.1-4.4,5.4-7.2H494V441.6z"/>
			<path class="st0" d="M507.5,464.5c0-8.5,1.5-14.4,4.6-17.9c3-3.5,7.6-5,13.9-5c3,0,5.4,0.4,7.4,1.1c2,0.7,3.5,1.7,4.8,2.8
				c1.3,1.1,2.2,2.4,2.8,3.7c0.7,1.3,1.3,2.8,1.7,4.6c0.9,3.3,1.3,6.8,1.3,10.5c0,8.1-1.3,14.2-4.1,17.9c-2.8,3.7-7.4,5.7-14.2,5.7
				c-3.7,0-6.8-0.7-9.1-1.7c-2.4-1.1-4.1-3-5.7-5.2c-1.1-1.7-2-3.9-2.6-6.8C508,471.2,507.5,467.9,507.5,464.5z M519.9,464.7
				c0,5.7,0.4,9.6,1.5,11.8c1.1,2.2,2.4,3,4.4,3c1.3,0,2.4-0.4,3.3-1.3c0.9-0.9,1.5-2.2,2-4.1c0.4-2,0.7-4.8,0.7-8.9
				c0-5.9-0.4-10-1.5-12s-2.6-3-4.6-3c-2,0-3.5,1.1-4.4,3C520.4,455.1,519.9,459,519.9,464.7z"/>
			<path class="st0" d="M577.4,441.6v45.5h-12.6v-29.8c-2,1.5-3.9,2.8-5.9,3.7c-2,0.9-4.4,2-7.2,2.8v-10.2c4.1-1.3,7.6-3,9.8-5
				c2.4-2,4.1-4.4,5.4-7.2h10.5V441.6z"/>
			<path class="st0" d="M465.9,539.6c0-8.5,1.5-14.4,4.6-17.9c3-3.5,7.6-5,13.9-5c3,0,5.4,0.4,7.4,1.1c2,0.7,3.5,1.7,4.8,2.8
				c1.3,1.1,2.2,2.4,2.8,3.7c0.7,1.3,1.3,2.8,1.7,4.6c0.9,3.3,1.3,6.8,1.3,10.5c0,8.1-1.3,14.2-4.1,17.9s-7.4,5.7-14.2,5.7
				c-3.7,0-6.8-0.7-9.1-1.7c-2.4-1.3-4.1-3-5.7-5.2c-1.1-1.7-2-3.9-2.6-6.8C466.1,546.1,465.9,543.1,465.9,539.6z M478.1,539.6
				c0,5.7,0.4,9.6,1.5,11.8s2.4,3,4.4,3c1.3,0,2.4-0.4,3.3-1.3c0.9-0.9,1.5-2.2,2-4.1c0.4-2,0.7-4.8,0.7-8.9c0-5.9-0.4-10-1.5-12
				c-1.1-2-2.6-3-4.6-3c-2,0-3.5,1.1-4.4,3C478.8,530,478.1,533.9,478.1,539.6z"/>
			<path class="st0" d="M535.8,516.7v45.5h-12.6v-29.8c-2,1.5-3.9,2.8-5.9,3.7c-2,0.9-4.4,2-7.2,2.8v-10.2c4.1-1.3,7.6-3,9.8-5
				c2.4-2,4.1-4.4,5.4-7.2h10.5V516.7z"/>
			<path class="st0" d="M549.3,539.6c0-8.5,1.5-14.4,4.6-17.9c3-3.5,7.6-5,13.9-5c3,0,5.4,0.4,7.4,1.1c2,0.7,3.5,1.7,4.8,2.8
				c1.3,1.1,2.2,2.4,2.8,3.7c0.7,1.3,1.3,2.8,1.7,4.6c0.9,3.3,1.3,6.8,1.3,10.5c0,8.1-1.3,14.2-4.1,17.9c-2.8,3.7-7.4,5.7-14.2,5.7
				c-3.7,0-6.8-0.7-9.1-1.7c-2.4-1.3-4.1-3-5.7-5.2c-1.1-1.7-2-3.9-2.6-6.8C549.6,546.1,549.3,543.1,549.3,539.6z M561.5,539.6
				c0,5.7,0.4,9.6,1.5,11.8c1.1,2.2,2.4,3,4.4,3c1.3,0,2.4-0.4,3.3-1.3c0.9-0.9,1.5-2.2,2-4.1s0.7-4.8,0.7-8.9c0-5.9-0.4-10-1.5-12
				c-1.1-2-2.6-3-4.6-3c-2,0-3.5,1.1-4.4,3C562.2,530,561.5,533.9,561.5,539.6z"/>
			<path class="st0" d="M507.5,614.5c0-8.5,1.5-14.4,4.6-17.9c3-3.5,7.6-5,13.9-5c3,0,5.4,0.4,7.4,1.1s3.5,1.7,4.8,2.8
				c1.3,1.1,2.2,2.4,2.8,3.7c0.7,1.3,1.3,2.8,1.7,4.6c0.9,3.3,1.3,6.8,1.3,10.5c0,8.1-1.3,14.2-4.1,17.9c-2.8,3.7-7.4,5.7-14.2,5.7
				c-3.7,0-6.8-0.7-9.1-1.7c-2.4-1.1-4.1-3-5.7-5.2c-1.1-1.7-2-3.9-2.6-6.8C508,621.3,507.5,618,507.5,614.5z M519.9,614.8
				c0,5.7,0.4,9.6,1.5,11.8c1.1,2.2,2.4,3,4.4,3c1.3,0,2.4-0.4,3.3-1.3c0.9-0.9,1.5-2.2,2-4.1c0.4-2,0.7-4.8,0.7-8.9
				c0-5.9-0.4-10-1.5-12c-1.1-2-2.6-3-4.6-3c-2,0-3.5,1.1-4.4,3C520.4,605.2,519.9,609.1,519.9,614.8z"/>
			<path class="st0" d="M577.4,591.7v45.5h-12.6v-29.8c-2,1.5-3.9,2.8-5.9,3.7c-2,0.9-4.4,2-7.2,2.8v-10.2c4.1-1.3,7.6-3,9.8-5
				c2.4-2,4.1-4.4,5.4-7.2h10.5V591.7z"/>
		</g>
	</g>
	<path class="st0" d="M556.7,415.4H98.5C44,415.4,0,371.5,0,317v-0.7h655.4v0.7C655.4,371.2,611.2,415.4,556.7,415.4z"/>
	<g>
		<g>
			<path class="st0" d="M52.7,259.3c6.8-54.5,50.5-96.5,103.7-96.5c0.4,0,0.7,0,1.1,0c26.8-59.9,84.3-101.3,150.9-101.3
				c55.8,0,105.2,29,135.5,73.6c6.8-1.3,13.7-2,20.9-2c50.5,0,93.7,33.5,110.9,80.8c3.7-0.7,7.6-0.9,11.5-0.9
				c40.7,0,73.6,34.9,73.6,78s-32.9,78-73.6,78c-16.6,0-31.8-5.9-44-15.5c-20.9,19.4-48.1,31.1-78.2,31.1
				c-17.2,0-33.8-3.9-48.6-11.1c-29.2,26.1-66.7,42-107.8,42c-40.9,0-78.4-15.7-107.4-41.4c-13.5,6.8-28.5,10.5-44.7,10.5
				c-20.9,0-40.1-6.5-56.4-17.6c-10.7,10.7-25,17.4-40.7,17.4c-32.7,0-59.2-28.1-59.2-62.7C0,289.1,23.1,262.5,52.7,259.3z"/>
		</g>
		<path class="st1" d="M677.4,410.9L733.6,7.3c0.2-2-1.1-3.7-3-3.9l0,0c-2-0.2-3.7,1.1-3.9,3L670.4,410c-0.2,2,1.1,3.7,3,3.9l0,0
			C675.5,414.1,677.2,412.8,677.4,410.9z"/>
		<path class="st1" d="M836.4,145.1c3,8.3,0.2,10.2,2.8,13.7c4.4,6.1,9.6,8.7,17.4,9.6l3,0.2l137.7,12l-67.5-68l70.1-63.4
			c0,0-71.9-0.2-111.3-1.1C876.9,48,868.9,47.8,868,48s-0.7-1.1-0.2-3.3v-0.2c1.1-5.9,3.3-18.3-15.7-27.4
			C826,4.4,729.9,17.9,729.9,17.9l-14.8,115c0,0,100.4-1.7,112.8,3.5C833.4,138.6,835.1,141.7,836.4,145.1z"/>
		<path class="st2" d="M870.6,28.4c0-0.2-0.2-0.2-0.2-0.2C870.2,28.4,870.2,28.4,870.6,28.4z"/>
		<path class="st1" d="M565.5,237.1c-6.8,3.5-18.7,12.9-22.4,18.7c-0.7,0.9-1.1,2-1.7,3c-1.3,2.6-2.4,5.4-3,8.3
			c-0.4,1.5-0.4,2.8-0.2,4.1c-0.2,0.4-0.4,0.9-0.7,1.3l-20.5,12.2c-4.6,2.6-13.7,13.7-10.9,18.3l3,5c2.6,4.6,16.3,1.1,20.7-1.7
			l7.6-4.6c0.2,0.2,0.2,0.4,0.4,0.9c0.7,1.3,1.5,2.6,2.4,3.9c0.2,0.4,0.4,0.7,0.7,1.1c8.5,11.1,23.3,15.2,36.4,10.7
			c1.3-0.4,2.8-1.1,4.1-1.7l2-1.1l8.5-4.6c2.6-0.7,5.2-1.5,7.8-2.6c0.4-0.2,1.1-0.4,1.5-0.7c4.1-2,7.6-4.8,10.7-7.8
			c1.1-1.1,2-2.2,2.8-3.3C614,304.1,619,307,619,307l2.4-24c2.4-9.1,1.7-19-2.8-28.1c-0.2-0.4-0.7-1.1-0.9-1.5
			C607.3,234.4,584.4,227.5,565.5,237.1z"/>
		<g>
			<path class="st0" d="M828.1,33.6c1.1,0.2,2,0.4,3,0.7c15.2,3.7,25.7,10,30.7,20.9c0.4,1.1,1.1,1.3,2.6,1.3
				c8.7-0.4,16.3,0.2,23.3,3.5c4.8,2.2,8.1,5.2,9.8,8.9c0.9,1.7-0.4,3.5-3,4.1s-4.8,0-5.7-1.7c-4.8-9.4-20-12-33.3-7
				c-2.6,0.9-5.2,0.7-6.3-0.7c-1.3-1.3-0.4-3,2.2-3.9c3.3-1.3,3.3-1.3,2.4-3.7c-3.5-8.9-15.5-15.5-28.1-17.4
				c-13.5-1.7-25.9,1.1-32.2,8.3c-0.2,0.4-0.7,0.7-0.7,0.9c3,2,6.1,3.7,8.9,5.4c2.4,1.5,2.6,3.3,0.9,4.1c-1.7,1.1-4.1,0.7-6.5-0.9
				c-7.6-5.4-17.9-7.8-25.9-5.7c-7.6,2-11.1,8.1-7.2,14.8c2.6,4.6,7.4,8.1,14.4,10.2c13.9,4.4,28.5,7.6,43.6,9.8
				c4.1,0.7,6.3,1.7,5.7,3.5c-0.4,1.7-2.8,2.2-7.2,1.7c-15.2-2.2-29.8-5.7-44-10.2c-15.2-4.8-23.5-15.2-22-24.4c0-0.2,0-0.4,0-0.9
				c0.7-1.3,1.3-2.8,2-4.1c0.2-0.2,0.4-0.4,0.9-0.7c5.7-5.9,15-7.6,26.8-5.4c1.3,0.2,2,0,2.4-0.7c7.2-8.5,17.4-12,32.2-12
				c1.5,0,3,0,4.6,0C824,33.2,826.2,33.4,828.1,33.6z"/>
			<path class="st0" d="M846,84.1c0.7-1.3,0.9-2.4,1.7-3.5c1.1-1.5,3-2.2,5.7-2c2.4,0,4.4,0.7,5.2,2.2c1.5,2.4,1.3,5-0.7,7.4
				c-1.1,1.3-3,1.7-5.4,1.7s-4.6-0.7-5.2-2C846.4,86.8,846.4,85.5,846,84.1z M855.6,84.6c-0.2-0.9-0.2-2-0.4-2.8
				c-0.2-0.4-1.1-0.9-1.7-0.9s-2,0.4-2,0.9c-0.4,1.7-0.7,3.7-0.7,5.4c0,0.4,1.1,0.9,1.7,0.9s1.7-0.4,2-0.9
				C854.9,86.3,855.2,85.5,855.6,84.6z"/>
			<path class="st0" d="M905,81.5c-0.2,0.9-0.2,2-0.4,2.8c-0.7,2.2-2.6,3.3-5.9,3.7c-3.5,0.4-5.7-0.2-6.3-2.2c-0.4-2-0.4-4.1,0-6.1
				c0.4-1.7,2.6-2.8,5.2-3.3s4.8,0.2,5.9,1.5c0.2,0.4,0.4,0.9,0.7,1.3C904.8,80,905,80.7,905,81.5z M901.1,82
				c-0.2-0.9-0.2-1.7-0.9-2.6c-0.2-0.4-1.3-0.9-2.2-0.9c-0.7,0-1.7,0.9-1.7,1.3c-0.2,1.7,0,3.7,0.2,5.4c0,0.4,1.3,0.9,2,0.9
				c0.7,0,1.7-0.9,2-1.3C900.9,83.9,900.9,82.8,901.1,82z"/>
			<path class="st0" d="M874.8,100.7c0.2-0.9,0.4-1.7,1.1-2.8c1.1-1.7,3-2.8,6.1-3c3-0.2,5.2,0.4,6.1,2.2c1.1,2.2,1.1,4.4-0.2,6.8
				c-1.1,1.7-3,2.6-6.1,2.8c-3.3,0.2-5.2-0.4-6.1-2.2c-0.2-0.4-0.4-0.9-0.4-1.3C874.8,102.4,874.8,101.8,874.8,100.7z M878.9,100.9
				c0.2,0.9,0.2,2,0.7,2.8c0.2,0.4,1.3,0.9,2,0.9c0.9,0,2.2-0.7,2.2-1.1c0.4-2,0.4-3.7,0.4-5.7c0-0.4-1.3-0.9-2-0.9
				c-0.9,0-2,0.7-2.2,1.1C879.3,99,879.3,99.8,878.9,100.9z"/>
			<path class="st0" d="M853,106.4c-1.5,0-2.8-0.2-4.1-0.2c0.4-2.6,1.1-5.2,1.5-8.1c-1.3,0.4-2.4,0.9-3.7,1.3
				c-0.7-0.4-1.1-0.9-1.7-1.5c3.3-0.9,5.4-3,10-2.2C854.1,99.2,853.6,102.9,853,106.4z"/>
			<path class="st0" d="M886.7,89.2c-1.3,0-2.4,0.2-3.9,0.2c0-2.8,0.2-5.4,0.2-8.5c-1.3,0.7-2.4,1.1-3.5,1.7c-0.7-0.4-1.1-0.9-2-1.3
				c3-1.3,4.8-3.7,9.1-3.5C886.7,81.5,886.7,85.2,886.7,89.2z"/>
			<path class="st0" d="M840.3,89.2c-1.3,0-2.4-0.2-3.9-0.2c0.4-2.6,0.9-5.2,1.5-8.1c-1.3,0.4-2.4,0.7-3.5,1.1
				c-0.4-0.4-1.1-0.9-1.7-1.5c3.3-0.7,5.2-2.8,9.4-2C841.6,82,841,85.5,840.3,89.2z"/>
			<path class="st0" d="M865.8,98.3c-1.5,0.7-2.6,1.1-3.9,1.5c-0.7-0.4-1.1-0.9-2-1.5c3.3-0.9,5.2-3.3,9.8-2.8
				c-0.4,3.7-0.9,7.2-1.3,10.9c-1.3,0-2.6,0-3.9,0C865.2,104,865.4,101.4,865.8,98.3z"/>
			<path class="st0" d="M829.2,96.6c3.5-0.7,5.7-2.6,10-1.7c-0.7,3.5-1.5,7-2.2,10.5c-1.3-0.2-2.6-0.2-4.1-0.4
				c0.7-2.6,1.3-5,1.7-7.8c-1.5,0.4-2.4,0.7-3.7,1.1C830.5,97.7,829.9,97.2,829.2,96.6z"/>
			<path class="st0" d="M897.4,112.9c-0.4,1.1-0.7,2-1.1,2.8c-0.7,1.1-2.2,2-4.4,2.2c-2.2,0.2-3.9,0-4.6-1.1
				c-1.3-1.7-1.1-3.7,0.4-5.7c0.9-1.1,2.4-1.5,4.4-1.7c2-0.2,3.5,0,4.1,0.9C896.8,111.2,897,112.2,897.4,112.9z M893.9,113.6
				c0-0.4,0.2-0.9,0-1.3c-0.4-0.7-1.1-1.1-1.7-1.5c-0.7,0.7-1.5,1.1-2,1.7c-0.4,0.9-0.4,1.7-0.2,2.4c0.2,0.4,1.1,0.9,1.7,1.3
				c0.7-0.4,1.5-1.1,2-1.5C893.9,114.4,893.7,114,893.9,113.6z"/>
			<path class="st0" d="M872.4,123.6c0.4-0.9,0.7-1.5,1.1-2.4c0.9-1.3,2.4-2,4.8-2c2.4,0,4.1,0.4,4.4,1.7c0.2,1.5,0,3-0.7,4.6
				c-0.4,1.3-2.4,2-4.8,2c-2.2,0-3.9-0.4-4.6-1.5C872.6,125.1,872.6,124.4,872.4,123.6z M880,123.4c0-0.4,0.2-1.1-0.2-1.7
				c-0.2-0.4-0.9-0.9-1.5-0.9c-0.4,0-1.5,0.4-1.7,0.9c-0.4,1.1-0.7,2.4-0.7,3.5c0,0.2,0.9,0.7,1.5,0.9c0.7-0.4,1.5-0.7,2-1.1
				C879.8,124.4,879.8,123.8,880,123.4z"/>
			<path class="st0" d="M907.4,121.4c-0.4,0.9-0.4,2-1.5,2.8c-0.9,0.9-2.8,1.7-4.4,1.7c-1.5,0.2-3.5-0.2-4.1-0.9
				c-1.7-1.5-1.3-3.7,0.2-5.7c0.9-1.1,2.4-1.5,4.4-1.7c2-0.2,3.7,0,4.4,1.1C907,119.7,907.2,120.5,907.4,121.4z M899.8,122
				c0,0.7,0,1.3,0.2,1.7c0.2,0.2,1.1,0.7,1.7,0.7c0.4,0,1.5-0.7,1.5-0.9c0.2-1.3,0.4-2.6,0.2-3.7c0-0.2-1.1-0.7-1.5-0.7
				c-0.7,0-1.3,0.7-1.7,1.1C900,120.7,900,121.4,899.8,122z"/>
			<path class="st0" d="M857.8,114.4c-0.4,0.9-0.9,1.7-1.5,2.4c-0.9,1.1-2.4,1.5-4.4,1.3c-2.2,0-3.7-0.7-4.1-1.7
				c-0.9-1.7-0.4-3.5,1.1-5.2c0.9-0.9,2.4-1.3,4.4-1.1c2,0,3.5,0.4,4.1,1.5C857.5,112.7,857.5,113.6,857.8,114.4z M854.3,114.4
				c0-0.7,0.2-1.3-0.2-2c-0.2-0.4-0.9-0.7-1.5-0.9c-0.4,0-1.5,0.4-1.5,0.7c-0.4,1.1-0.7,2.4-0.9,3.7c0,0.2,0.9,0.7,1.5,0.9
				c0.4,0,1.3-0.4,1.5-0.7C853.8,115.7,854.1,115.1,854.3,114.4z"/>
			<path class="st0" d="M834.5,112.9c-0.4,0.9-0.9,1.5-1.3,2.2c-0.9,1.1-2.6,1.5-4.8,1.3c-2.2-0.2-3.9-1.1-3.9-2.2
				c0-1.5,0.4-3,1.3-4.6c0.7-1.1,2.4-1.3,4.6-1.1c2.2,0.2,3.7,0.9,3.9,2C834.5,111.4,834.5,112.2,834.5,112.9z M831.4,112.7
				c0-0.7,0.2-1.3,0-2c0-0.2-0.9-0.7-1.3-0.9c-0.4,0-1.5,0.2-1.5,0.4c-0.4,1.3-0.9,2.4-1.1,3.7c0,0.2,0.9,0.9,1.3,0.9
				c0.4,0,1.3-0.2,1.7-0.4C830.8,114,831,113.3,831.4,112.7z"/>
			<path class="st0" d="M906.3,116.2c-2.4,0.7-3.5,0.7-3.3-0.9c0.2-1.5,0.2-3,0.2-4.8c-1.1,0.7-2,0.9-2.8,1.3
				c-0.4-0.2-0.9-0.4-1.5-0.9c1.5-0.9,2.8-1.7,4.4-2.4c2-0.9,3.3-0.7,3,0.7C906.6,111.6,906.6,113.8,906.3,116.2z"/>
			<path class="st0" d="M837.5,112.5c-0.2-0.4-0.7-1.1-0.2-1.3c0.7-0.7,4.8-1.5,6.8-1.3c-0.7,2.4-1.1,5-1.7,7.4
				c-2.8,0.2-3,0-2.8-1.3c0.4-1.3,0.7-2.8,1.1-4.4C839.7,112,838.8,112.2,837.5,112.5z"/>
			<path class="st0" d="M860.6,113.8c-0.2-0.4-0.7-0.9-0.4-1.3c0.7-0.9,4.8-1.7,6.8-1.7c-0.4,2.6-0.9,5-1.3,7.8c-0.9,0-1.7,0-2.8,0
				c0.4-2,0.7-3.7,1.1-5.9C862.8,113.1,861.9,113.3,860.6,113.8z"/>
			<path class="st0" d="M888.9,126.8c0.2-2,0.4-3.7,0.7-5.9c-1.1,0.4-1.7,0.7-2.6,1.1c-0.4-0.2-0.9-0.4-1.3-0.7
				c2.8-2,4.6-2.4,7.4-2.6c-0.2,2.6-0.4,5.2-0.9,7.8C891.1,126.6,890.2,126.8,888.9,126.8z"/>
			<path class="st0" d="M856.7,131.6c-0.2,0.4-0.2,0.9-0.4,1.3c-0.7,0.9-1.7,1.5-3.9,1.5c-2,0-3.3-0.7-3.3-1.7c0-0.9,0-1.7,0.4-2.6
				c0.4-1.1,1.7-1.7,4.1-1.5c2.4,0.2,3,0.9,3.3,2C856.9,130.8,856.7,131.2,856.7,131.6z M854.9,131.4c-0.7-0.7-1.1-1.3-1.7-2
				c-0.7,0.7-1.7,1.1-1.7,1.7c-0.2,0.7,0.4,1.3,0.9,2C853.2,132.5,854.1,132.1,854.9,131.4z"/>
			<path class="st0" d="M828.6,122.3c-0.7,2-2.4,2.8-5.2,2.2c-2.2-0.4-2.8-1.7-2-3.5c0.7-1.5,2-2.2,4.1-2
				C828.1,119.2,829.2,120.3,828.6,122.3z M822.9,121.6c0.4,0.9,0.9,1.5,1.3,2.2c0.7-0.4,1.7-1.1,2-1.5c0.2-0.7-0.4-1.3-0.7-2
				C824.7,120.5,824,121,822.9,121.6z"/>
			<path class="st0" d="M858.4,129.9c1.7-0.4,3.5-0.9,5.9-1.5c-0.4,2.2-0.7,3.9-1.3,5.4c0,0.2-0.9,0.4-1.3,0.7
				c-0.4-0.2-1.1-0.4-1.1-0.7c0.2-1.1,0.4-2.2,0.7-3c-1.1,0-2,0-2.8-0.2C858.6,130.3,858.6,130.1,858.4,129.9z"/>
			<path class="st0" d="M836.2,120.1c-0.4,2-0.9,3.5-1.5,5c-0.2,0.4-1.1,0.7-1.7,0.9c-0.2,0-0.4-0.2-0.7-0.2
				c0.4-1.3,0.7-2.4,1.1-3.5c-1.1-0.2-1.7-0.4-2.6-0.4c0.7-0.2,1.1-0.7,1.7-0.9C833.4,120.3,834.5,120.3,836.2,120.1z"/>
		</g>
		<path class="st3" d="M838.2,156.9c3.3,7.2,10.7,10.7,18.5,11.3L883.2,48c-11.8-0.2-14.4-0.7-15.2-0.7c-0.9,0.2-0.7-1.1-0.2-3.3
			C860.8,74.3,843.8,136.9,838.2,156.9z"/>
		<path class="st1" d="M693.3,334.4c-0.7-0.9-1.7-1.3-2.8-1.1L687,334c0-0.2-0.2-0.4-0.2-0.7l6.1-1.3c1.5-0.4,2.6-2,2.2-3.5
			c0-0.4,0-0.9,0-1.5c-0.4-1.7-2.4-2.8-4.1-2.4l-7.6,2.2h-0.2c-0.4,0-0.7,0-1.1,0l4.6-3.3c1.5-1.1,2-3.3,0.9-4.8
			c-1.1-1.5-3.3-2-4.8-0.9l-16.8,11.5c-0.2,0-0.4,0-0.4,0.2l-6.8,2l-0.4-3.5l-13.9,1.3l0.2,1.5c-8.7,0.2-21.1,0-34.2-1.5l0,0
			c-1.3-0.2-2.8-0.2-4.6-0.7c-0.7,0-1.5-0.2-2.2-0.2l0,0c-16.3-3-43.3-11.1-43.3-11.1l2.2-27.7c0,0,5.9,0,7.4,1.3
			c1.3,1.3,25.7,0.2,27.4,0c1.1-0.2,12.2,6.8,20,11.5c1.7-17.2-8.1-34.2-25-40.7c-7-2.6-22-5.4-29-4.1c-1.1,0.2-2.2,0.4-3.3,0.9
			c-2.8,0.9-5.4,2-8.1,3.3c-1.3,0.7-2.4,1.5-3.3,2.6c-0.4,0.2-1.1,0.2-1.5,0.4l-16.6-5l2.6-5l-3.3-2.8l0,0c0.4-3,0.9-10.5,0.2-17.4
			c0-1.3,0-2.8,0-4.6c0-0.2,0-0.4,0-0.7c-0.2-16.1-5.2-54.7-15.5-76.7c-5.4-11.8-13.9-22.4-22.4-31.1l0,0
			c-6.3-6.3-12.4-11.8-17.2-15.5l0.9-1.1l0,0L465,99.4l-1.5,2c-3.7-5.2-12.9-9.8-12.9-9.8s-2.8-1.5-5.4-2.4l-10.9-5
			c-1.3-0.7-2.8,0-3.5,1.3c-0.7,1.3,0,2.8,1.3,3.5l7.2,3.3c-0.2,0.2-0.2,0.4-0.4,0.9l-11.3-5.2c-1.3-0.7-2.8,0-3.5,1.3
			c-0.7,1.3,0,2.8,1.3,3.5l11.3,5.2c-0.2,0.2-0.2,0.7-0.4,0.9l-10.9-5c-1.3-0.7-2.8,0-3.5,1.3c-0.7,1.3,0,2.8,1.3,3.5l12.6,5.9
			c1.3,0.9,2.6,2,3.9,2.8l-5.2-0.7c-1.5-0.2-2.6,0.9-2.8,2.2l0,0c-0.2,1.3,0.9,2.6,2.4,2.8l18.7,2l1.5,0.7l0,0l-2.2,2.8l8.1,6.8
			l0.7-0.9c8.7,8.5,22.9,23.7,30.1,39.4c4.4,9.6,6.5,26.1,7.8,44.4c0,0.7,0.2,1.3,0.2,2.2c-5.7-2.8-11.8-5.4-19.8-8.5l-77.3-29.8
			l-0.2,0.4h-0.2l0.2-0.7l-4.4-1.5l-2.4-0.9l-0.2,0.9l-6.8-1.5l-2.2-0.4v-0.2c-0.9-0.2-1.7-0.4-2.4-0.7l0,0l-1.1-0.4
			c-2.8-1.1-5.4-1.7-7.8-2.2c-9.8-2.8-19.2-5.9-27.4-8.9c-11.5-4.1-21.1-8.3-26.1-11.5c2.8-5.4,9.8-16.1,24.4-32.7
			c9.1-10.2,17-18.5,22.2-23.5l1.1,1.1l7-6.5l-2.8-3.3c0.4-0.4,0.7-0.7,1.1-1.1c0.2-0.2,0.2-0.2,0.4-0.4l0,0l1.3,1.7l13.9-11.1
			l-0.2-0.2l1.3-1.1l-30.5-38.1c-1.3-1.5-3.5-1.7-5-0.4l0.2,0.2c-1.1,0-2.2,0.4-3,1.1c-1.7,1.3-2.4,3.7-1.7,5.9l8.3,24l3.5,4.4l0,0
			l-1.7,2l-3.9-4.4l-8.7,7.2l0.4,0.4c-8.3,7-20,18.1-31.6,29.6c-20,20.3-28.3,32.7-30.1,44.4c-0.7,4.8,0,9.1,1.7,13.3
			c5,11.5,18.5,23.3,49.9,34.2c0.9,0.2,6.5,2.4,13.3,4.8l-0.2,0.4l-2.8,8.5l-0.2,0.4l-0.2,0.7c-2.4,0.2-5,0.4-8.1,0.9
			c-17.6,1.5-48.1,4.1-57.3,3.9l0,0c-0.2,0-0.7,0-0.9,0s-0.4,0-0.7,0l0,0c-0.2,0-0.4,0-0.7-0.2c-7.8-4.1-33.3-35.1-59-70.4l0.4-0.2
			l-2.4-3l0.7-0.4l0.4-0.4l-6.8-6.5l-5.9,5c-1.1-1.3-3-3.7-4.6-5.7l2.4-3.5l-14.6-10.2l-0.2,0.2l-1.3-0.9L162.1,153
			c-1.1,1.5-0.7,3.7,0.9,4.8l0.2-0.2c0.4,1.1,1.1,2,2,2.6c1.7,1.3,4.1,1.3,6.1,0l20.5-14.8l1.5-2.4l0.2,0.2l1.3,1.3l-4.1,3.5
			l3.9,3.7c0.9,1.1,2,2.6,3.3,4.4c5.7,7.4,15,19.6,24.4,32c28.8,38.3,40.3,46.4,47.9,49.2c17.6,6.8,72.8,7.8,93.4,7l7,2l0,0l0.4,0.2
			l3.5,1.1c0.7,0.4,1.5,0.7,2.4,1.1c22.2,10.2,89.7,40.5,101.1,43.8c1.7,0.4,5.2,2.2,7,2.4c0.7,0,1.1,0,1.5,0.2
			c0.9,0.9,1.7,1.7,2.8,2.8c3.5,3.5,8.1,7.6,13.3,12.2l0,0c0.2,0.2,0.2,0.2,0.4,0.4c0.9,0.9,1.7,1.5,2.8,2.4
			c0.2,0.2,0.4,0.4,0.7,0.7c0.9,0.7,1.5,1.3,2.4,2c0.4,0.2,0.7,0.7,1.1,0.9c0.9,0.9,2,1.5,2.8,2.4c0.2,0.2,0.7,0.4,0.9,0.7
			c0.9,0.7,1.5,1.3,2.4,2c0.4,0.2,0.7,0.7,1.1,0.9c1.1,0.9,2,1.5,3,2.4c0.4,0.2,0.7,0.4,1.1,0.9c0.9,0.7,1.7,1.3,2.4,2
			c0.4,0.2,0.9,0.7,1.1,0.9c1.1,0.9,2.2,1.5,3.3,2.4c0.4,0.2,0.9,0.7,1.1,0.9c0.9,0.7,1.7,1.3,2.6,1.7c0.4,0.2,0.7,0.4,1.1,0.9
			c1.1,0.9,2.2,1.5,3.5,2.2c0.4,0.2,0.9,0.4,1.3,0.9c0.9,0.7,1.7,1.1,2.8,1.7c0.4,0.2,0.7,0.4,1.1,0.7c1.1,0.7,2.4,1.5,3.5,2.2
			c0.4,0.2,0.9,0.4,1.3,0.7c1.1,0.7,2,1.1,3,1.7c0.2,0.2,0.7,0.2,0.9,0.4c1.3,0.7,2.4,1.3,3.7,2c0.4,0.2,0.7,0.4,1.1,0.7
			c1.1,0.7,2.2,1.1,3.5,1.7c0.2,0,0.4,0.2,0.4,0.2c1.3,0.7,2.6,1.1,3.7,1.7c0.4,0.2,0.7,0.2,1.1,0.4c1.3,0.4,2.6,1.1,3.9,1.5
			c12,4.4,24.8,6.3,37.5,7.2h0.2c4.1,0.2,8.3,0.4,12.4,0.4l0,0c11.8,0,22.4-0.9,30.5-1.7l0.2,2l0,0l14.6-3.5l-0.4-2.8
			c7.6,0.2,16.3-2,16.3-2s4.4-0.9,7.6-2.4l4.6-1.1c1.7-0.4,3-2.2,2.6-3.9c-0.2-1.3-1.3-2.2-2.4-2.6c-0.4-0.2-1.1-0.4-1.7-0.2
			c0-0.2-0.2-0.4-0.2-0.9l3-0.9c1.7-0.4,2.8-2.4,2.4-4.1C694.2,335.5,693.7,334.9,693.3,334.4z"/>
		<path class="st0" d="M542.6,202.2c-2.4,0-4.8,0.2-7.2,0.7c-7.4-14.6-22.7-24.4-40.1-24.4c-4.6,0-8.9,0.7-13.3,2
			c-8.1-7.4-18.7-12-30.5-12c-17.4,0-32.5,10-39.9,24.4c-6.8-3.9-14.4-6.1-22.7-6.1c-24.8,0-44.9,20-44.9,44.9c0,1.5,0,3.3,0.2,4.8
			c-19.4,5-33.5,22.7-33.5,43.6c0,24.8,20,44.9,44.9,44.9c13.9,0,26.6-6.3,34.6-16.3c8.1,8.1,19.4,13.1,31.6,13.1
			c6.3,0,12.2-1.3,17.6-3.7c8.1,8.1,19.4,13.1,31.8,13.1c24.8,0,44.9-20,44.9-44.9c0-0.9,0-1.5,0-2.4c7.4,5.2,16.3,8.3,26.1,8.3
			c24.8,0,44.9-20,44.9-44.9C587.5,222.2,567.4,202.2,542.6,202.2z"/>
	</g>
</g>
</svg>
